SplineFontDB: 3.0
FontName: FreeSerifb-SmallCaps
FullName: FreeSerifb-SmallCaps
FamilyName: FreeSerifb
Weight: SmallCaps
Copyright: Created by Antonis Tsolomitis with FontForge 2.0 (http://fontforge.sf.net)
Version: 001.000
ItalicAngle: 0
UnderlinePosition: -100
UnderlineWidth: 50
Ascent: 803
Descent: 197
LayerCount: 2
Layer: 0 0 "Back"  1
Layer: 1 0 "Fore"  0
NeedsXUIDChange: 1
UniqueID: 4312981
OS2Version: 0
OS2_WeightWidthSlopeOnly: 0
OS2_UseTypoMetrics: 0
CreationTime: 1257284491
ModificationTime: 1261304061
OS2TypoAscent: 0
OS2TypoAOffset: 1
OS2TypoDescent: 0
OS2TypoDOffset: 1
OS2TypoLinegap: 0
OS2WinAscent: 0
OS2WinAOffset: 1
OS2WinDescent: 0
OS2WinDOffset: 1
HheadAscent: 0
HheadAOffset: 1
HheadDescent: 0
HheadDOffset: 1
OS2Vendor: 'PfEd'
Lookup: 258 0 0 "'kern' +A58DwQO5A7YDzAO9A8QDuQOx +AKsDxQPAA78DwwO6A7EDxgOuALsA lookup 0"  {"'kern' +A58DwQO5A7YDzAO9A8QDuQOx +AKsDxQPAA78DwwO6A7EDxgOuALsA lookup 0-1"  } ['kern' ('DFLT' <'dflt' > 'grek' <'dflt' > 'latn' <'dflt' > ) ]
DEI: 91125
Encoding: UnicodeFull
UnicodeInterp: none
NameList: Adobe Glyph List
DisplaySize: -48
AntiAlias: 1
FitToEm: 1
WinInfo: 880 16 9
BeginPrivate: 8
BlueValues 47 [-14.000 0.000 483.000 493.000 661.000 676.000]
BlueScale 12 0.0666666667
StdHW 8 [19.000]
StdVW 9 [102.000]
StemSnapH 15 [13.000 19.000]
StemSnapV 16 [74.000 102.000]
ForceBoldThreshold 2 .5
ForceBold 5 false
EndPrivate
BeginChars: 1114112 325

StartChar: exclam
Encoding: 33 33 0
Width: 228
Flags: MW
HStem: -10 86<100.5 127 100.5 127.5> 467 20G<93 131.5>
VStem: 66 95<429 440>
LayerCount: 2
Fore
SplineSet
123 123 m 1
 105 123 l 1
 68 406 l 2
 67 414 66 425 66 433 c 0
 66 447 72 487 114 487 c 0
 149 487 161 461 161 433 c 0
 161 419 159 403 158 392 c 2
 123 123 l 1
114 76 m 0
 140 76 160 57 160 33 c 0
 160 10 141 -10 114 -10 c 0
 86 -10 67 10 67 33 c 0
 67 57 87 76 114 76 c 0
EndSplineSet
EndChar

StartChar: quotedbl
Encoding: 34 34 1
Width: 408
Flags: MW
HStem: 431 245<109 130 109 109 278 299 278 278>
VStem: 109 21<431 431> 278 21<431 431>
LayerCount: 2
Fore
SplineSet
299 431 m 1
 278 431 l 1
 261 521 246 619 246 635 c 0
 246 658 265 676 289 676 c 0
 312 676 331 658 331 636 c 0
 331 607 319 548 306 471 c 2
 299 431 l 1
130 431 m 1
 109 431 l 1
 92 521 77 619 77 635 c 0
 77 658 96 676 120 676 c 0
 143 676 162 658 162 636 c 0
 162 607 150 548 137 471 c 2
 130 431 l 1
EndSplineSet
EndChar

StartChar: numbersign
Encoding: 35 35 2
Width: 500
Flags: MW
HStem: 0 21G<79 137 79 79 273 331 273 273> 216 55<5 112 5 121 179 304 5 170 371 471> 405 55<32 142 32 150 32 200 208 333 399 496> 642 20G<181 239 239 239 371 429 429 429>
LayerCount: 2
Fore
SplineSet
471 271 m 1
 471 216 l 1
 362 216 l 1
 331 0 l 1
 273 0 l 1
 304 216 l 1
 170 216 l 1
 137 0 l 1
 79 0 l 1
 112 216 l 1
 5 216 l 1
 5 271 l 1
 121 271 l 1
 142 405 l 1
 32 405 l 1
 32 460 l 1
 150 460 l 1
 181 662 l 1
 239 662 l 1
 208 460 l 1
 341 460 l 1
 371 662 l 1
 429 662 l 1
 399 460 l 1
 496 460 l 1
 496 405 l 1
 391 405 l 1
 371 271 l 1
 471 271 l 1
333 405 m 1
 200 405 l 1
 179 271 l 1
 313 271 l 1
 333 405 l 1
EndSplineSet
EndChar

StartChar: dollar
Encoding: 36 36 3
Width: 371
Flags: MW
HStem: -13 31<170 170 202 202> 475 32<170 170>
VStem: 40 19<18 129 129 129> 40 62<386 394.5> 170 32<-60 -13 -60 -13 18 200 315 475 507 541> 275 71<105.5 122.5> 302 20<357 473>
LayerCount: 2
Fore
SplineSet
170 541 m 1xea
 202 541 l 1
 202 507 l 1
 224 506 260 504 322 473 c 1
 322 357 l 1
 302 357 l 1xda
 291 438 263 470 202 475 c 1
 202 293 l 1
 294 232 346 196 346 124 c 0
 346 87 329 50 298 24 c 0
 265 -4 235 -8 202 -13 c 1
 202 -60 l 1
 170 -60 l 1
 170 -13 l 1
 118 -11 78 -4 40 18 c 1
 40 129 l 1
 59 129 l 1xec
 66 60 104 22 170 18 c 1
 170 222 l 1
 87 276 40 313 40 382 c 0xda
 40 407 52 494 170 507 c 1
 170 541 l 1xea
170 315 m 1
 170 475 l 1
 132 473 102 450 102 407 c 0
 102 365 131 341 170 315 c 1
202 200 m 1
 202 18 l 1
 253 28 275 66 275 102 c 0xec
 275 143 252 164 202 200 c 1
EndSplineSet
EndChar

StartChar: percent
Encoding: 37 37 4
Width: 833
Flags: MW
HStem: 0 30<568 591.5> 289 34<178.5 236.5 178.5 240> 339 32<625.5 695> 583 25<427.5 464> 632 30<248.5 289>
VStem: 61 76<381 430.5 366 479.5> 359 25<494.5 556 492 558> 449 76<90 119.5 75 191.5> 746 26<225 281>
LayerCount: 2
Fore
SplineSet
669 371 m 0
 734 371 772 332 772 264 c 0
 772 186 739 105 686 51 c 0
 651 16 614 0 569 0 c 0
 497 0 449 51 449 129 c 0
 449 254 556 371 669 371 c 0
586 30 m 0
 676 30 746 166 746 259 c 0
 746 303 714 339 676 339 c 0
 575 339 525 145 525 94 c 0
 525 56 550 30 586 30 c 0
282 662 m 0
 358 662 341 608 439 608 c 0
 501 608 541 625 595 676 c 1
 634 676 l 1
 249 -13 l 1
 201 -13 l 1
 552 613 l 1
 512 590 486 583 442 583 c 0
 413 583 395 586 377 593 c 1
 382 575 384 563 384 549 c 0
 384 435 301 289 179 289 c 0
 114 289 61 346 61 416 c 0
 61 543 168 662 282 662 c 0
282 632 m 0
 215 632 137 477 137 384 c 0
 137 348 161 323 196 323 c 0
 277 323 359 438 359 551 c 0
 359 565 356 580 350 600 c 1
 291 616 296 632 282 632 c 0
EndSplineSet
EndChar

StartChar: ampersand
Encoding: 38 38 5
Width: 594
Flags: MW
HStem: -13 40<195 223.5> -13 57<479.5 511> 298 18<390 537 390 537> 473 22<273.5 300.5>
VStem: 40 78<110.5 143> 170 65<399.5 406.5> 338 44<387.5 430.5> 428 109<236.5 316>
LayerCount: 2
Fore
SplineSet
390 298 m 1xbf
 390 316 l 1
 537 316 l 1
 537 298 l 1
 498 293 484 284 454 224 c 0
 432 179 406 144 390 121 c 1
 420 83 455 44 504 44 c 0
 535 44 549 63 558 92 c 1x7f
 577 92 l 1
 574 74 554 -13 468 -13 c 0
 405 -13 366 29 339 60 c 1
 316 38 266 -13 181 -13 c 0
 100 -13 40 38 40 96 c 0
 40 190 137 243 195 274 c 1
 181 303 170 328 170 367 c 0
 170 446 216 495 284 495 c 0
 328 495 382 472 382 411 c 0
 382 355 341 327 278 290 c 1
 321 217 341 189 375 144 c 1
 397 172 428 214 428 259 c 0
 428 293 403 297 390 298 c 1xbf
267 311 m 1
 303 337 338 362 338 413 c 0
 338 448 315 473 286 473 c 0
 261 473 235 455 235 416 c 0
 235 383 246 358 267 311 c 1
206 251 m 1
 166 226 118 195 118 139 c 0
 118 82 171 27 219 27 c 0
 238 27 276 33 322 80 c 1xbf
 255 168 234 196 206 251 c 1
EndSplineSet
EndChar

StartChar: quotesingle
Encoding: 39 39 6
Width: 180
Flags: MW
HStem: 431 245<80 101 80 80>
VStem: 80 21<431 431>
LayerCount: 2
Fore
SplineSet
101 431 m 1
 80 431 l 1
 63 521 48 619 48 635 c 0
 48 658 67 676 91 676 c 0
 114 676 133 658 133 636 c 0
 133 607 121 548 108 471 c 2
 101 431 l 1
EndSplineSet
EndChar

StartChar: parenleft
Encoding: 40 40 7
Width: 333
Flags: MW
HStem: 656 20G<295 295>
VStem: 48 86<131.5 377.5 127.5 379>
LayerCount: 2
Fore
SplineSet
292 -177 m 1
 218 -132 48 11 48 252 c 0
 48 506 213 623 295 676 c 1
 304 660 l 1
 201 577 134 500 134 255 c 0
 134 0 201 -80 304 -161 c 1
 292 -177 l 1
EndSplineSet
EndChar

StartChar: parenright
Encoding: 41 41 8
Width: 333
Flags: MW
HStem: 656 20G<41 41>
VStem: 199 86<122.5 367.5 120 370>
LayerCount: 2
Fore
SplineSet
41 676 m 1
 115 631 285 488 285 247 c 0
 285 -7 120 -124 38 -177 c 1
 29 -161 l 1
 132 -78 199 1 199 244 c 0
 199 496 135 577 29 660 c 1
 41 676 l 1
EndSplineSet
EndChar

StartChar: asterisk
Encoding: 42 42 9
Width: 500
Flags: MW
HStem: 656 20G<241 261>
VStem: 214 74<294.5 318 294.5 318.5>
LayerCount: 2
Fore
SplineSet
214 302 m 0
 214 335 242 375 242 424 c 2
 242 432 l 1
 241 449 l 1
 241 456 l 1
 125 383 156 351 105 351 c 0
 83 351 69 364 69 386 c 0
 69 440 136 411 234 471 c 1
 223 478 l 2
 165 515 69 501 69 555 c 0
 69 575 84 591 103 591 c 0
 151 591 136 544 241 486 c 1
 241 499 l 2
 241 560 216 610 216 641 c 0
 216 661 231 676 251 676 c 0
 271 676 287 660 287 639 c 0
 287 608 260 563 260 510 c 2
 260 484 l 1
 327 522 363 593 395 593 c 0
 416 593 431 577 431 554 c 0
 431 502 372 530 268 470 c 1
 361 412 432 445 432 387 c 0
 432 365 418 350 397 350 c 0
 349 350 333 426 260 456 c 1
 260 449 l 2
 260 364 288 331 288 305 c 0
 288 284 270 265 249 265 c 0
 230 265 214 282 214 302 c 0
EndSplineSet
EndChar

StartChar: plus
Encoding: 43 43 10
Width: 564
Flags: MW
HStem: 0 21G<249 315 249 249> 220 66<30 249 30 249 315 534>
VStem: 249 66<0 220 0 220 286 506>
LayerCount: 2
Fore
SplineSet
249 286 m 1
 249 506 l 1
 315 506 l 1
 315 286 l 1
 534 286 l 1
 534 220 l 1
 315 220 l 1
 315 0 l 1
 249 0 l 1
 249 220 l 1
 30 220 l 1
 30 286 l 1
 249 286 l 1
EndSplineSet
EndChar

StartChar: comma
Encoding: 44 44 11
Width: 250
Flags: MW
HStem: -2 104<97.5 146>
VStem: 156 39<-17 -12>
LayerCount: 2
Fore
SplineSet
142 -2 m 0
 138 -2 132 -6 115 -6 c 0
 79 -6 56 13 56 45 c 0
 56 79 80 102 115 102 c 0
 160 102 195 63 195 13 c 0
 195 -47 150 -108 83 -141 c 1
 74 -122 l 1
 128 -85 156 -48 156 -16 c 0
 156 -8 150 -2 142 -2 c 0
EndSplineSet
EndChar

StartChar: hyphen
Encoding: 45 45 12
Width: 333
Flags: MW
HStem: 194 63<39 285 39 285>
VStem: 39 246<194 257 194 257>
LayerCount: 2
Fore
SplineSet
39 257 m 1
 285 257 l 1
 285 194 l 1
 39 194 l 1
 39 257 l 1
EndSplineSet
EndChar

StartChar: period
Encoding: 46 46 13
Width: 250
Flags: MW
HStem: -11 111<110 139.5>
VStem: 70 111<28.5 58.5>
LayerCount: 2
Fore
SplineSet
125 100 m 0
 155 100 181 74 181 43 c 0
 181 14 155 -11 124 -11 c 0
 95 -11 70 14 70 43 c 0
 70 74 95 100 125 100 c 0
EndSplineSet
EndChar

StartChar: slash
Encoding: 47 47 14
Width: 278
Flags: MW
HStem: 656 20G<220 287 287 287>
VStem: -9 296
LayerCount: 2
Fore
SplineSet
287 676 m 1
 59 -14 l 1
 -9 -14 l 1
 220 676 l 1
 287 676 l 1
EndSplineSet
EndChar

StartChar: zero
Encoding: 48 48 15
Width: 488
Flags: MW
HStem: -13 56<198.5 303 198.5 320.5> 439 56<207 294>
VStem: 39 68<195.5 302 195.5 325.5> 395 68<195 306>
LayerCount: 2
Fore
SplineSet
251 495 m 0
 380 495 463 384 463 245 c 0
 463 114 389 -13 252 -13 c 0
 124 -13 39 98 39 244 c 0
 39 407 142 495 251 495 c 0
254 439 m 0
 160 439 107 362 107 242 c 0
 107 149 147 43 250 43 c 0
 356 43 395 143 395 247 c 0
 395 365 334 439 254 439 c 0
EndSplineSet
EndChar

StartChar: one
Encoding: 49 49 16
Width: 243
Flags: HMW
HStem: 0 14 469 14
VStem: 84 74
LayerCount: 2
Fore
SplineSet
13 0 m 1
 13 19 l 1
 66 20 82 38 82 86 c 2
 82 398 l 2
 82 444 64 464 13 465 c 1
 13 483 l 1
 230 483 l 1
 230 463 l 1
 169 460 161 443 161 398 c 6
 161 86 l 6
 161 40 170 23 230 21 c 1
 230 0 l 1
 13 0 l 1
EndSplineSet
EndChar

StartChar: two
Encoding: 50 50 17
Width: 500
Flags: HMW
HStem: 0 71<156 312 312 342 156 405> 430 65<198.5 241.5>
VStem: 317 80<329 352>
LayerCount: 2
Fore
SplineSet
47 17 m 1
 55 25 92 56 99 62 c 0
 146 102 239 186 272 224 c 0
 296 251 317 282 317 324 c 0
 317 380 273 430 210 430 c 0
 187 430 157 423 128 398 c 0
 113 385 110 380 91 350 c 1
 75 356 l 1
 86 388 125 495 251 495 c 0
 352 495 397 420 397 354 c 0
 397 304 386.679 244.617 213 117 c 2
 155.944 75.0762 l 1
 329.944 75.2861 l 2
 384.944 75.3477 399.932 80.3564 442.866 148.399 c 1
 459.874 140.416 l 1
 404.017 0.358398 l 1
 47.0166 1 l 1
 47 17 l 1
EndSplineSet
EndChar

StartChar: three
Encoding: 51 51 18
Width: 500
Flags: HMW
HStem: -205 44<234 269> 144 19<172 186> 430 67<191.5 242>
VStem: 323 75<326 347.5> 359 72<-11 16.5>
LayerCount: 2
Fore
SplineSet
81 -107 m 0xf0
 130 -107 165 -163 229 -163 c 0
 303 -163 360 -98 360 -14 c 0
 360 55 321 112 259 134 c 0
 235 143 212 145 153 145 c 1
 153 158 l 1
 228 184 319 224 319 324 c 0
 319 387 274 431 209 431 c 0
 146 431 101 398 60 325 c 1
 45 329 l 1
 72 404 120 491 242 491 c 0
 334 491 398 435 398 354 c 0
 398 300 373 263 304 216 c 1
 371 187 432 143 432 34 c 0
 432 -110 311 -199 156 -199 c 0
 86 -199 43 -177 43 -142 c 0
 43 -121 58 -107 81 -107 c 0xf0
EndSplineSet
EndChar

StartChar: four
Encoding: 52 52 19
Width: 500
Flags: HMW
HStem: -205 21G<306 382 306 306> 0 63<87 306 87 306 32 306 383 470> 475 20G<338 383 383 383>
VStem: 306 77<-205 495 0 495 63 384 384 384>
LayerCount: 2
Fore
SplineSet
472 51 m 1
 472 -13 l 1
 370 -13 l 1
 370 -180 l 1
 293 -180 l 1
 293 -13 l 1
 12 -13 l 1
 12 51 l 1
 326 496 l 1
 370 496 l 1
 370 51 l 1
 472 51 l 1
292 51 m 1
 292 394 l 1
 52 51 l 1
 292 51 l 1
EndSplineSet
EndChar

StartChar: five
Encoding: 53 53 20
Width: 500
Flags: HMW
HStem: -205 49<230 248> 407 76<212 405 212 212>
VStem: 372 63<-20.5 24>
LayerCount: 2
Fore
SplineSet
357 17 m 0
 357 203 138 235 76 235 c 0
 68 235 64 238 64 243 c 0
 64 245 64 246 65 248 c 2
 174 485 l 1
 383 485 l 2
 404 485 414 490 429 511 c 1
 438 504 l 1
 400 415 l 2
 397 408 393 406 377 406 c 2
 181 406 l 1
 139 321 l 1
 325 288 427 221 427 65 c 0
 427 -140 260 -191 154 -191 c 0
 79 -191 32 -167 32 -129 c 0
 32 -104 46 -92 75 -92 c 0
 131 -92 165 -154 218 -154 c 0
 296 -154 357 -79 357 17 c 0
EndSplineSet
EndChar

StartChar: six
Encoding: 54 54 21
Width: 500
Flags: MW
HStem: -14 28<225 304 225 320> 382 46<258 285> 668 16<446 448>
VStem: 34 93<191 298 185.5 346> 378 90<150 247.5>
LayerCount: 2
Fore
SplineSet
258 -14 m 0
 124 -14 34 103 34 279 c 0
 34 413 93 527 201 604 c 0
 274 655 332 674 446 684 c 1
 448 668 l 1
 291 642 179 534 152 383 c 1
 215 421 236 428 280 428 c 0
 395 428 468 347 468 219 c 0
 468 81 382 -14 258 -14 c 0
242 382 m 0
 144 382 127 333 127 263 c 0
 127 108 181 14 269 14 c 0
 339 14 378 75 378 185 c 0
 378 310 328 382 242 382 c 0
EndSplineSet
EndChar

StartChar: seven
Encoding: 55 55 22
Width: 500
Flags: HMW
HStem: -205 21G<240 240> 324 21G<69 69> 404 79<167.5 183 183 377>
VStem: 52 403<332 483>
LayerCount: 2
Fore
SplineSet
449 484 m 1
 449 468 l 1
 237 -186 l 1
 172 -186 l 1
 370 410 l 1
 153 410 l 2
 98 410 80 397 37 329 c 1
 20 337 l 1
 79 484 l 1
 449 484 l 1
EndSplineSet
EndChar

StartChar: eight
Encoding: 56 56 23
Width: 500
Flags: MW
HStem: -14 28<221 291.5 221 308> 648 28<212.5 278>
VStem: 56 76<115.5 185> 355 69<500 569.5>
LayerCount: 2
Fore
SplineSet
290 371 m 1
 411 281 445 232 445 155 c 0
 445 52 368 -14 248 -14 c 0
 135 -14 56 54 56 151 c 0
 56 219 78 250 186 332 c 1
 81 424 62 453 62 518 c 0
 62 609 143 676 252 676 c 0
 352 676 424 616 424 534 c 0
 424 466 389 424 290 371 c 1
272 268 m 2
 212 312 l 1
 154 265 132 223 132 159 c 0
 132 72 183 14 259 14 c 0
 324 14 369 59 369 124 c 0
 369 180 344 215 272 268 c 2
261 389 m 1
 289 410 355 447 355 535 c 0
 355 604 312 648 244 648 c 0
 181 648 136 607 136 549 c 0
 136 493 172 447 261 389 c 1
EndSplineSet
EndChar

StartChar: nine
Encoding: 57 57 24
Width: 500
Flags: HMW
HStem: -205 20<63 63> 62 46<192.5 241> 467 30<202.5 277.5>
VStem: 47 83<307.5 324.5> 363 89<214 284>
LayerCount: 2
Fore
SplineSet
59 -202 m 1
 56 -182 l 1
 208 -156 319 -49 360 114 c 1
 307 73 265 57 210 57 c 0
 102 57 30 138 30 260 c 0
 30 395 119 496 238 496 c 0
 367 496 459 379 459 214 c 0
 459 79 398 -45 294 -121 c 0
 226 -170 171 -189 59 -202 c 1
246 100 m 0
 274 100 362 115 362 175 c 2
 362 214 l 2
 362 382 317 468 230 468 c 0
 144 468 122 368 122 294 c 0
 122 175 170 100 246 100 c 0
EndSplineSet
EndChar

StartChar: colon
Encoding: 58 58 25
Width: 278
Flags: MW
HStem: -11 111<121 150.5> 348 111<121 150.5>
VStem: 81 111<28.5 58.5 387.5 417.5>
LayerCount: 2
Fore
SplineSet
136 459 m 0
 166 459 192 433 192 402 c 0
 192 373 166 348 135 348 c 0
 106 348 81 373 81 402 c 0
 81 433 106 459 136 459 c 0
136 100 m 0
 166 100 192 74 192 43 c 0
 192 14 166 -11 135 -11 c 0
 106 -11 81 14 81 43 c 0
 81 74 106 100 136 100 c 0
EndSplineSet
EndChar

StartChar: semicolon
Encoding: 59 59 26
Width: 278
Flags: MW
HStem: -2 104<121.5 170> 348 111<121 150.5>
VStem: 180 39<-17 -12>
LayerCount: 2
Fore
SplineSet
166 -2 m 0
 162 -2 156 -6 139 -6 c 0
 102 -6 80 13 80 46 c 0
 80 80 104 102 139 102 c 0
 184 102 219 63 219 13 c 0
 219 -47 176 -107 107 -141 c 1
 98 -122 l 1
 152 -85 180 -48 180 -16 c 0
 180 -8 174 -2 166 -2 c 0
136 459 m 0
 166 459 192 433 192 402 c 0
 192 373 166 348 135 348 c 0
 106 348 81 373 81 402 c 0
 81 433 106 459 136 459 c 0
EndSplineSet
EndChar

StartChar: less
Encoding: 60 60 27
Width: 564
Flags: MW
HStem: -10 21G<536 536>
LayerCount: 2
Fore
SplineSet
536 -10 m 1
 28 220 l 1
 28 286 l 1
 536 516 l 1
 536 444 l 1
 116 253 l 1
 536 62 l 1
 536 -10 l 1
EndSplineSet
EndChar

StartChar: equal
Encoding: 61 61 28
Width: 564
Flags: MW
HStem: 120 66<30 534 30 534> 320 66<30 534 30 534>
LayerCount: 2
Fore
SplineSet
534 386 m 1
 534 320 l 1
 30 320 l 1
 30 386 l 1
 534 386 l 1
534 186 m 1
 534 120 l 1
 30 120 l 1
 30 186 l 1
 534 186 l 1
EndSplineSet
EndChar

StartChar: greater
Encoding: 62 62 29
Width: 564
Flags: MW
HStem: -10 21G<28 28>
LayerCount: 2
Fore
SplineSet
28 -10 m 1
 28 62 l 1
 448 253 l 1
 28 444 l 1
 28 516 l 1
 536 286 l 1
 536 220 l 1
 28 -10 l 1
EndSplineSet
EndChar

StartChar: question
Encoding: 63 63 30
Width: 304
Flags: MW
HStem: -9 86<132.5 159.5> 325 21G<51.5 79> 458 29<121.5 161.5>
VStem: 20 63<367.5 430.5> 99 94<22 45.5> 134 18<110 110> 203 82<358 383.5>
LayerCount: 2
Fore
SplineSet
152 110 m 1xf6
 134 110 l 1
 137 175 145 200 176 269 c 0
 201 323 203 344 203 366 c 0
 203 401 188 458 135 458 c 0
 108 458 83 444 83 417 c 0
 83 406 85 401 97 378 c 0
 99 374 103 367 103 358 c 0
 103 343 91 325 67 325 c 0
 36 325 20 352 20 383 c 0
 20 431 62 487 150 487 c 0
 270 487 285 398 285 374 c 0
 285 342 273 307 225 255 c 0
 161 186 155 168 152 110 c 1xf6
146 77 m 0xfa
 173 77 193 58 193 34 c 0
 193 10 173 -9 146 -9 c 0
 119 -9 99 10 99 34 c 0
 99 57 119 77 146 77 c 0xfa
EndSplineSet
EndChar

StartChar: at
Encoding: 64 64 31
Width: 921
Flags: MW
HStem: -14 39<407 518> 143 33<627 673 627 674.5> 464 44<505 534.5 458 537.5> 645 31<396 560.5>
VStem: 116 84<236 410 236 423.5> 321 71<246 311> 769 40<323 447.5>
LayerCount: 2
Fore
SplineSet
482 645 m 0
 310 645 200 497 200 323 c 0
 200 149 322 25 492 25 c 0
 559 25 610 38 688 73 c 1
 700 43 l 1
 603 -1 553 -14 483 -14 c 0
 276 -14 116 134 116 326 c 0
 116 521 278 676 481 676 c 0
 666 676 809 548 809 383 c 0
 809 254 724 143 625 143 c 0
 577 143 540 172 534 216 c 1
 500 171 453 144 409 144 c 0
 360 144 321 193 321 256 c 0
 321 366 399 508 517 508 c 0
 552 508 567 497 589 456 c 1
 599 494 l 1
 668 494 l 1
 603 240 l 2
 601 234 601 229 601 222 c 0
 601 191 614 176 640 176 c 0
 706 176 769 273 769 373 c 0
 769 522 639 645 482 645 c 0
572 406 m 0
 572 452 547 464 528 464 c 0
 482 464 392 391 392 272 c 0
 392 220 415 187 452 187 c 0
 521 187 572 325 572 406 c 0
EndSplineSet
EndChar

StartChar: A
Encoding: 65 65 32
Width: 722
Flags: MW
HStem: 0 19<189 213 15 15> 216 41<216 447 216 461 199 447> 654 20G<347 367 367 367>
LayerCount: 2
Fore
SplineSet
706 19 m 1
 706 0 l 1
 451 0 l 1
 451 19 l 1
 504 20 521 28 521 53 c 0
 521 67 514 93 502 120 c 2
 461 216 l 1
 199 216 l 1
 153 99 l 2
 148 86 145 72 145 60 c 0
 145 32 165 19 213 19 c 1
 213 0 l 1
 15 0 l 1
 15 19 l 1
 63 21 77 36 139 183 c 2
 347 674 l 1
 367 674 l 1
 616 106 l 2
 649 31 661 22 706 19 c 1
216 257 m 1
 447 257 l 1
 331 532 l 1
 216 257 l 1
EndSplineSet
EndChar

StartChar: B
Encoding: 66 66 33
Width: 667
Flags: MW
HStem: 0 19<17 351 17 17> 326 40<215 265> 625 37<229.5 237 237 281>
VStem: 113 102<109 326 366 553 553 590> 478 115<144 210.5>
LayerCount: 2
Fore
SplineSet
593 180 m 0
 593 108 545 0 351 0 c 2
 17 0 l 1
 17 19 l 1
 100 22 113 35 113 109 c 2
 113 553 l 2
 113 627 101 638 17 643 c 1
 17 662 l 1
 297 662 l 2
 470 662 559 604 559 492 c 0
 559 377 457 357 422 348 c 1
 462 338 593 310 593 180 c 0
278 37 m 0
 387 37 478 61 478 179 c 0
 478 242 451 282 394 306 c 0
 358 321 315 326 215 326 c 1
 215 78 l 2
 215 46 229 37 278 37 c 0
215 366 m 1
 310 366 l 2
 404 366 457 410 457 488 c 0
 457 577 396 625 281 625 c 2
 237 625 l 2
 222 625 215 616 215 595 c 2
 215 366 l 1
EndSplineSet
EndChar

StartChar: C
Encoding: 67 67 34
Width: 667
Flags: MW
HStem: -14 44<336 416.5> 450 21G<597 620 597 597> 636 40<309.5 417.5 269.5 446.5>
VStem: 28 116<222.5 428.5 216 430.5> 597 23<450 450>
LayerCount: 2
Fore
SplineSet
28 325 m 0
 28 536 176 676 363 676 c 0
 472 676 512 643 548 643 c 0
 568 643 584 655 590 676 c 1
 611 676 l 1
 620 450 l 1
 597 450 l 1
 569 545 511 636 382 636 c 0
 237 636 144 519 144 338 c 0
 144 94 280 30 392 30 c 0
 475 30 541 60 615 131 c 1
 633 113 l 1
 572 32 473 -14 360 -14 c 0
 164 -14 28 120 28 325 c 0
EndSplineSet
EndChar

StartChar: D
Encoding: 68 68 35
Width: 722
Flags: MW
HStem: 0 19<16 300 16 16> 625 37<237.5 286 286 385>
VStem: 104 102<109 553 553 586> 576 109<265 394>
LayerCount: 2
Fore
SplineSet
685 334 m 0
 685 196 608 0 300 0 c 2
 16 0 l 1
 16 19 l 1
 92 24 104 37 104 109 c 2
 104 553 l 2
 104 627 95 636 16 643 c 1
 16 662 l 1
 286 662 l 2
 603 662 685 479 685 334 c 0
576 327 m 0
 576 461 512 625 258 625 c 0
 217 625 206 617 206 586 c 2
 206 78 l 2
 206 46 218 37 258 37 c 0
 446 37 576 110 576 327 c 0
EndSplineSet
EndChar

StartChar: E
Encoding: 69 69 36
Width: 611
Flags: MW
HStem: 0 19<12 552 12 12> 327 41<201 355 201 355> 624 38<220.5 234 234 369>
VStem: 99 102<109 327 368 553 553 588> 465 23<231 463 231 463> 521 25<519 519>
LayerCount: 2
Fore
SplineSet
201 80 m 2
 201 42 208 37 306 37 c 2
 333 37 l 2
 476 37 519 61 569 169 c 1
 597 169 l 1
 552 0 l 1
 12 0 l 1
 12 19 l 1
 85 24 99 39 99 109 c 2
 99 553 l 2
 99 623 86 637 12 643 c 1
 12 662 l 1
 543 662 l 1
 546 519 l 1
 521 519 l 1
 504 609 482 624 369 624 c 2
 234 624 l 2
 207 624 201 618 201 590 c 2
 201 368 l 1
 355 368 l 2
 448 368 454 397 465 463 c 1
 488 463 l 1
 488 231 l 1
 465 231 l 1
 452 314 437 327 355 327 c 2
 201 327 l 1
 201 80 l 2
EndSplineSet
EndChar

StartChar: F
Encoding: 70 70 37
Width: 556
Flags: MW
HStem: 0 19<12 292 12 12> 327 41<201 346 201 346> 624 38<219.5 233 233 369>
VStem: 99 102<120 327 368 553 553 588> 456 23<231 231> 521 25<519 519>
LayerCount: 2
Fore
SplineSet
479 231 m 1
 456 231 l 1
 444 312 427 327 346 327 c 2
 201 327 l 1
 201 109 l 2
 201 37 215 23 292 19 c 1
 292 0 l 1
 12 0 l 1
 12 19 l 1
 88 24 99 37 99 120 c 2
 99 553 l 2
 99 623 86 637 12 643 c 1
 12 662 l 1
 543 662 l 1
 546 519 l 1
 521 519 l 1
 504 609 482 624 369 624 c 2
 233 624 l 2
 206 624 201 618 201 590 c 2
 201 368 l 1
 346 368 l 2
 426 368 444 383 456 463 c 1
 479 463 l 1
 479 231 l 1
EndSplineSet
EndChar

StartChar: G
Encoding: 71 71 38
Width: 722
Flags: MW
HStem: -14 40<327.5 431> 336 18<454 709 454 709> 636 40<293.5 425 275 457>
VStem: 32 114<233 387.5 233 427> 607 23<465 465>
LayerCount: 2
Fore
SplineSet
392 636 m 0
 195 636 146 449 146 326 c 0
 146 140 246 26 409 26 c 0
 481 26 542 53 542 85 c 2
 542 247 l 2
 542 324 527 331 454 336 c 1
 454 354 l 1
 709 354 l 1
 709 336 l 1
 651 331 639 318 639 259 c 2
 639 56 l 1
 599 21 474 -14 388 -14 c 0
 252 -14 32 54 32 325 c 0
 32 529 175 676 375 676 c 0
 475 676 520 643 555 643 c 0
 576 643 594 657 600 676 c 1
 622 676 l 1
 630 465 l 1
 607 465 l 1
 573 547 522 636 392 636 c 0
EndSplineSet
EndChar

StartChar: H
Encoding: 72 72 39
Width: 722
Flags: MW
HStem: 0 19<19 297 19 19> 315 44<209 512 209 512> 643 19<19 297 19 297>
VStem: 107 102<120 315 359 553> 512 102<120 315 315 315 359 553>
LayerCount: 2
Fore
SplineSet
209 359 m 1
 512 359 l 1
 512 553 l 2
 512 625 501 636 424 643 c 1
 424 662 l 1
 702 662 l 1
 702 643 l 1
 625 636 614 625 614 553 c 2
 614 109 l 2
 614 38 627 25 702 19 c 1
 702 0 l 1
 424 0 l 1
 424 19 l 1
 502 24 512 36 512 120 c 2
 512 315 l 1
 209 315 l 1
 209 109 l 2
 209 38 222 25 297 19 c 1
 297 0 l 1
 19 0 l 1
 19 19 l 1
 97 24 107 36 107 120 c 2
 107 553 l 2
 107 625 96 636 19 643 c 1
 19 662 l 1
 297 662 l 1
 297 643 l 1
 220 636 209 625 209 553 c 2
 209 359 l 1
EndSplineSet
EndChar

StartChar: I
Encoding: 73 73 40
Width: 333
Flags: MW
HStem: 0 19<18 315 18 18> 643 19<18 315 18 315>
VStem: 115 102<109 553>
LayerCount: 2
Fore
SplineSet
115 109 m 2
 115 553 l 2
 115 627 103 638 18 643 c 1
 18 662 l 1
 315 662 l 1
 315 643 l 1
 231 639 217 626 217 553 c 2
 217 109 l 2
 217 36 233 22 315 19 c 1
 315 0 l 1
 18 0 l 1
 18 19 l 1
 102 22 115 34 115 109 c 2
EndSplineSet
EndChar

StartChar: J
Encoding: 74 74 41
Width: 389
Flags: MW
HStem: -14 38<120 151 120 163> 643 19<83 370 83 370>
VStem: 176 102<120.5 183 183 553>
LayerCount: 2
Fore
SplineSet
59 108 m 0
 120 108 102 24 138 24 c 0
 164 24 176 45 176 90 c 2
 176 553 l 2
 176 626 165 637 83 643 c 1
 83 662 l 1
 370 662 l 1
 370 643 l 1
 289 637 278 626 278 553 c 2
 278 183 l 2
 278 58 217 -14 109 -14 c 0
 51 -14 10 16 10 58 c 0
 10 85 32 108 59 108 c 0
EndSplineSet
EndChar

StartChar: K
Encoding: 75 75 42
Width: 722
Flags: MW
HStem: 0 19<34 316 34 34> 643 19<34 318 34 318>
VStem: 124 102<120 296 348 553>
LayerCount: 2
Fore
SplineSet
413 643 m 1
 413 662 l 1
 675 662 l 1
 675 643 l 1
 607 638 590 631 523 565 c 2
 333 377 l 1
 566 127 l 2
 657 30 671 20 723 19 c 1
 723 0 l 1
 418 0 l 1
 418 19 l 1
 430 20 441 20 446 20 c 0
 474 21 488 28 488 42 c 0
 488 66 434 137 358 212 c 2
 252 317 l 1
 226 296 l 1
 226 109 l 2
 226 36 238 24 316 19 c 1
 316 0 l 1
 34 0 l 1
 34 19 l 1
 113 24 124 37 124 120 c 2
 124 553 l 2
 124 624 112 637 34 643 c 1
 34 662 l 1
 318 662 l 1
 318 643 l 1
 237 637 226 626 226 553 c 2
 226 348 l 1
 403 509 l 2
 458 559 481 590 481 612 c 0
 481 632 469 640 439 642 c 0
 435 642 425 642 413 643 c 1
EndSplineSet
EndChar

StartChar: L
Encoding: 76 76 43
Width: 611
Flags: MW
HStem: 0 39<287 354 354 441.5> 643 19<12 294 12 294>
VStem: 99 102<109 553>
LayerCount: 2
Fore
SplineSet
354 39 m 2
 529 39 553 128 573 174 c 1
 598 174 l 1
 550 0 l 1
 12 0 l 1
 12 19 l 1
 85 24 99 39 99 109 c 2
 99 553 l 2
 99 623 86 637 12 643 c 1
 12 662 l 1
 294 662 l 1
 294 643 l 1
 215 638 201 624 201 553 c 2
 201 80 l 2
 201 45 214 39 287 39 c 2
 354 39 l 2
EndSplineSet
EndChar

StartChar: M
Encoding: 77 77 44
Width: 889
Flags: MW
HStem: 0 19<12 247 12 12> 643 19<14 212>
VStem: 109 44<147 550> 674 102<120 553>
LayerCount: 2
Fore
SplineSet
674 573 m 1
 418 0 l 1
 404 0 l 1
 153 550 l 1
 153 147 l 2
 153 46 170 23 247 19 c 1
 247 0 l 1
 12 0 l 1
 12 19 l 1
 95 25 109 44 109 147 c 2
 109 553 l 2
 109 626 96 638 14 643 c 1
 14 662 l 1
 212 662 l 1
 443 157 l 1
 664 662 l 1
 863 662 l 1
 863 643 l 1
 789 637 776 624 776 553 c 2
 776 109 l 2
 776 38 790 24 863 19 c 1
 863 0 l 1
 583 0 l 1
 583 19 l 1
 662 24 674 37 674 120 c 2
 674 573 l 1
EndSplineSet
EndChar

StartChar: N
Encoding: 78 78 45
Width: 722
Flags: MW
HStem: 0 19<12 247 12 12> 643 19<12 33.5>
VStem: 109 44<147 539> 568 44<178 515 -11 567>
LayerCount: 2
Fore
SplineSet
707 643 m 1
 646 637 612 632 612 515 c 2
 612 -11 l 1
 595 -11 l 1
 153 539 l 1
 153 147 l 2
 153 46 170 23 247 19 c 1
 247 0 l 1
 12 0 l 1
 12 19 l 1
 95 25 109 44 109 147 c 2
 109 588 l 1
 69 635 55 643 12 643 c 1
 12 662 l 1
 183 662 l 1
 568 178 l 1
 568 515 l 2
 568 619 549 637 472 643 c 1
 472 662 l 1
 707 662 l 1
 707 643 l 1
EndSplineSet
EndChar

StartChar: O
Encoding: 79 79 46
Width: 722
Flags: MW
HStem: -14 36<274.5 445 274.5 453.5> 640 36<275 405>
VStem: 34 114<268.5 391 268.5 431.5> 574 114<268 431.5 226.5 452.5>
LayerCount: 2
Fore
SplineSet
355 -14 m 0
 180 -14 34 121 34 331 c 0
 34 532 170 676 361 676 c 0
 551 676 688 536 688 327 c 0
 688 126 552 -14 355 -14 c 0
574 328 m 0
 574 577 449 640 361 640 c 0
 189 640 148 453 148 329 c 0
 148 208 190 22 359 22 c 0
 531 22 574 208 574 328 c 0
EndSplineSet
EndChar

StartChar: P
Encoding: 80 80 47
Width: 556
Flags: MW
HStem: 0 19<16 296 16 16> 288 40<258 316.5 249 386> 625 37<222.5 280 280 303.5>
VStem: 100 102<120 291 331 553 553 589> 433 109<442.5 526.5>
LayerCount: 2
Fore
SplineSet
542 481 m 0
 542 404 501 288 271 288 c 0
 245 288 228 289 202 291 c 1
 202 109 l 2
 202 36 217 22 296 19 c 1
 296 0 l 1
 16 0 l 1
 16 19 l 1
 92 26 100 36 100 120 c 2
 100 553 l 2
 100 625 90 635 16 643 c 1
 16 662 l 1
 280 662 l 2
 388 662 542 626 542 481 c 0
202 591 m 2
 202 331 l 1
 225 329 239 328 259 328 c 0
 374 328 433 378 433 475 c 0
 433 578 371 625 236 625 c 0
 209 625 202 618 202 591 c 2
EndSplineSet
EndChar

StartChar: Q
Encoding: 81 81 48
Width: 722
Flags: MW
HStem: -177 18<695 701 695 701> 640 36<277.5 427>
VStem: 34 114<230 395.5 211 430.5> 574 114<270 426.5>
LayerCount: 2
Fore
SplineSet
688 331 m 0
 688 61 480 3 426 -7 c 1
 507 -112 587 -156 701 -159 c 1
 701 -177 l 1
 695 -177 l 1
 684 -178 675 -178 660 -178 c 0
 501 -178 380 -135 312 -56 c 2
 265 -1 l 1
 150 38 34 131 34 329 c 0
 34 532 170 676 361 676 c 0
 552 676 688 532 688 331 c 0
574 333 m 0
 574 520 490 640 364 640 c 0
 191 640 148 456 148 335 c 0
 148 87 270 22 361 22 c 0
 531 22 574 207 574 333 c 0
EndSplineSet
EndChar

StartChar: R
Encoding: 82 82 49
Width: 667
Flags: MW
HStem: 0 19<17 294 17 17> 308 35 625 37<235 293 293 317.5>
VStem: 102 102<120 306 343 553 553 588.5> 438 109<429.5 535>
LayerCount: 2
Fore
SplineSet
293 662 m 2
 391 662 547 636 547 486 c 0
 547 348 407 327 366 319 c 1
 572 66 l 2
 600 31 621 22 659 19 c 1
 659 0 l 1
 498 0 l 1
 260 308 l 1
 204 306 l 1
 204 109 l 2
 204 37 217 24 294 19 c 1
 294 0 l 1
 17 0 l 1
 17 19 l 1
 92 25 102 37 102 120 c 2
 102 553 l 2
 102 624 92 635 17 643 c 1
 17 662 l 1
 293 662 l 2
204 343 m 1
 352 346 438 371 438 488 c 0
 438 582 380 625 255 625 c 0
 215 625 204 617 204 589 c 2
 204 343 l 1
EndSplineSet
EndChar

StartChar: S
Encoding: 83 83 50
Width: 556
Flags: MW
HStem: 20 2 635 41<230 281 199.5 297.5>
VStem: 72 22<-13 -13> 390 101<116.5 209 116.5 220.5>
LayerCount: 2
Fore
SplineSet
390 135 m 0
 390 306 71 300 71 505 c 0
 71 611 155 676 244 676 c 0
 318 676 363 642 394 642 c 0
 411 642 422 653 426 676 c 1
 447 676 l 1
 469 463 l 1
 444 463 l 1
 410 587 334 635 261 635 c 0
 199 635 157 597 157 542 c 0
 157 488 199 443 304 386 c 0
 436 314 491 250 491 168 c 0
 491 65 402 -14 287 -14 c 0
 200 -14 159 20 122 20 c 0
 107 20 95 6 94 -13 c 1
 72 -13 l 1
 42 199 l 1
 65 199 l 1
 115 77 178 22 267 22 c 0
 340 22 390 68 390 135 c 0
EndSplineSet
EndChar

StartChar: T
Encoding: 84 84 51
Width: 611
Flags: MW
HStem: 0 19<160 452 160 160> 620 42<144 200 200 254 356 356 356 410>
VStem: 17 24<492 492> 254 102<120 620> 569 24<492 492>
LayerCount: 2
Fore
SplineSet
254 620 m 1
 200 620 l 2
 88 620 65 601 41 492 c 1
 17 492 l 1
 23 662 l 1
 587 662 l 1
 593 492 l 1
 569 492 l 1
 546 602 524 620 410 620 c 2
 356 620 l 1
 356 109 l 2
 356 36 370 23 452 19 c 1
 452 0 l 1
 160 0 l 1
 160 19 l 1
 243 24 254 35 254 120 c 2
 254 620 l 1
EndSplineSet
EndChar

StartChar: U
Encoding: 85 85 52
Width: 722
Flags: MW
HStem: -14 44<309 415.5 309 462> 643 19<14 297 14 297>
VStem: 104 102<241 553> 567 44<245 254 254 515>
LayerCount: 2
Fore
SplineSet
206 233 m 2
 206 111 240 30 378 30 c 0
 453 30 517 61 544 109 c 0
 560 139 567 177 567 245 c 2
 567 515 l 2
 567 615 551 637 473 643 c 1
 473 662 l 1
 705 662 l 1
 705 643 l 1
 623 633 611 617 611 515 c 2
 611 254 l 2
 611 111 569 -14 355 -14 c 0
 185 -14 104 68 104 241 c 2
 104 553 l 2
 104 626 93 637 14 643 c 1
 14 662 l 1
 297 662 l 1
 297 643 l 1
 217 636 206 625 206 553 c 2
 206 233 l 2
EndSplineSet
EndChar

StartChar: V
Encoding: 86 86 53
Width: 722
Flags: MW
HStem: -11 21G<368 383 368 368> 643 19<16 282 16 282>
LayerCount: 2
Fore
SplineSet
697 662 m 1
 697 643 l 1
 649 640 637 630 605 550 c 2
 383 -11 l 1
 368 -11 l 1
 122 538 l 2
 82 628 65 641 16 643 c 1
 16 662 l 1
 282 662 l 1
 282 643 l 1
 268 642 257 641 253 641 c 0
 221 639 207 629 207 610 c 0
 207 595 215 572 248 499 c 2
 399 161 l 1
 546 528 l 2
 558 558 565 585 565 601 c 0
 565 629 547 640 492 643 c 1
 492 662 l 1
 697 662 l 1
EndSplineSet
EndChar

StartChar: W
Encoding: 87 87 54
Width: 944
Flags: MW
HStem: -11 21G<301 316 301 301 630 645 630 630> 643 19<5 250 5 250>
LayerCount: 2
Fore
SplineSet
932 662 m 1
 932 643 l 1
 879 633 868 624 849 572 c 0
 740 278 730 250 645 -11 c 1
 630 -11 l 1
 470 412 l 1
 316 -11 l 1
 301 -11 l 1
 108 526 l 2
 74 621 56 638 5 643 c 1
 5 662 l 1
 250 662 l 1
 250 643 l 1
 199 640 185 633 185 611 c 0
 185 600 189 583 196 565 c 2
 340 189 l 1
 447 471 l 1
 414 553 l 2
 381 634 370 642 313 643 c 1
 313 662 l 1
 580 662 l 1
 580 643 l 1
 526 642 503 632 503 608 c 0
 503 591 515 566 530 527 c 2
 662 186 l 1
 787 525 l 2
 797 553 803 579 803 600 c 0
 803 627 785 638 734 643 c 1
 734 662 l 1
 932 662 l 1
EndSplineSet
EndChar

StartChar: X
Encoding: 88 88 55
Width: 722
Flags: MW
HStem: 0 19<10 243 10 10> 643 19<22 324 22 324>
LayerCount: 2
Fore
SplineSet
696 662 m 1
 696 643 l 1
 632 639 611 628 547 549 c 2
 401 367 l 1
 593 93 l 2
 634 34 651 25 704 19 c 1
 704 0 l 1
 407 0 l 1
 407 19 l 1
 419 20 430 21 434 21 c 0
 468 22 484 32 484 50 c 0
 484 65 466 99 433 148 c 2
 338 288 l 1
 219 140 l 2
 182 94 167 69 167 54 c 0
 167 31 185 23 243 19 c 1
 243 0 l 1
 10 0 l 1
 10 19 l 1
 61 23 68 26 155 133 c 2
 312 326 l 1
 203 486 l 2
 107 627 87 640 22 643 c 1
 22 662 l 1
 324 662 l 1
 324 643 l 1
 296 642 l 2
 263 641 248 633 248 613 c 0
 248 591 272 548 333 463 c 2
 375 404 l 1
 488 542 l 2
 517 578 528 596 528 611 c 0
 528 634 512 641 458 643 c 1
 458 662 l 1
 696 662 l 1
EndSplineSet
EndChar

StartChar: Y
Encoding: 89 89 56
Width: 722
Flags: MW
HStem: 0 19<214 520 214 214> 643 19<22 302 22 302>
VStem: 315 102<120 294 294 294>
LayerCount: 2
Fore
SplineSet
703 662 m 1
 703 643 l 1
 652 639 624 619 565 529 c 2
 417 303 l 1
 417 109 l 2
 417 33 431 21 520 19 c 1
 520 0 l 1
 214 0 l 1
 214 19 l 1
 305 23 315 33 315 120 c 2
 315 294 l 1
 184 486 l 2
 87 629 70 641 22 643 c 1
 22 662 l 1
 302 662 l 1
 302 643 l 1
 291 642 281 642 277 642 c 0
 245 640 231 631 231 613 c 0
 231 602 237 585 248 569 c 2
 396 347 l 1
 539 573 l 2
 548 588 553 600 553 610 c 0
 553 634 536 642 484 643 c 1
 484 662 l 1
 703 662 l 1
EndSplineSet
EndChar

StartChar: Z
Encoding: 90 90 57
Width: 611
Flags: MW
HStem: 0 38<145 402 402 469.5> 624 38<154 225 225 446>
VStem: 31 26<491 491> 574 23<176 176>
LayerCount: 2
Fore
SplineSet
402 38 m 2
 537 38 554 110 574 176 c 1
 597 176 l 1
 573 0 l 1
 9 0 l 1
 9 15 l 1
 446 624 l 1
 225 624 l 2
 83 624 69 559 57 491 c 1
 31 491 l 1
 51 662 l 1
 577 662 l 1
 577 647 l 1
 145 38 l 1
 402 38 l 2
EndSplineSet
EndChar

StartChar: bracketleft
Encoding: 91 91 58
Width: 333
Flags: MW
HStem: -156 25<213 299 213 299> 637 25<193 209 209 299>
VStem: 88 76<-96.5 -79 -79 593>
LayerCount: 2
Fore
SplineSet
299 -131 m 1
 299 -156 l 1
 88 -156 l 1
 88 662 l 1
 299 662 l 1
 299 637 l 1
 209 637 l 2
 177 637 164 624 164 593 c 2
 164 -79 l 2
 164 -114 180 -131 213 -131 c 2
 299 -131 l 1
EndSplineSet
EndChar

StartChar: backslash
Encoding: 92 92 59
Width: 278
Flags: MW
HStem: 656 20G<-9 58 58 58>
VStem: -9 296
LayerCount: 2
Fore
SplineSet
-9 676 m 1
 58 676 l 1
 287 -14 l 1
 219 -14 l 1
 -9 676 l 1
EndSplineSet
EndChar

StartChar: bracketright
Encoding: 93 93 60
Width: 333
Flags: MW
HStem: -156 25<34 124 124 139.5 34 245 34 124> 637 25<34 120 34 245>
VStem: 169 76<-87 585 585 602.5>
LayerCount: 2
Fore
SplineSet
34 -131 m 1
 124 -131 l 2
 155 -131 169 -118 169 -87 c 2
 169 585 l 2
 169 620 153 637 120 637 c 2
 34 637 l 1
 34 662 l 1
 245 662 l 1
 245 -156 l 1
 34 -156 l 1
 34 -131 l 1
EndSplineSet
EndChar

StartChar: asciicircum
Encoding: 94 94 61
Width: 469
Flags: MW
HStem: 642 20G<205 265 265 265>
LayerCount: 2
Fore
SplineSet
92 297 m 1
 24 297 l 1
 205 662 l 1
 265 662 l 1
 446 297 l 1
 378 297 l 1
 235 586 l 1
 92 297 l 1
EndSplineSet
EndChar

StartChar: underscore
Encoding: 95 95 62
Width: 500
Flags: MW
HStem: -125 50<0 500 0 500>
LayerCount: 2
Fore
SplineSet
500 -125 m 1
 0 -125 l 1
 0 -75 l 1
 500 -75 l 1
 500 -125 l 1
EndSplineSet
EndChar

StartChar: grave
Encoding: 96 96 63
Width: 333
Flags: HMW
LayerCount: 2
Fore
SplineSet
242 507 m 1
 202 507 l 1
 48 604 l 2
 30 616 19 631 19 647 c 0
 19 666 32 678 53 678 c 0
 68 678 77 673 95 655 c 2
 242 507 l 1
EndSplineSet
EndChar

StartChar: a
Encoding: 97 97 64
Width: 531
Flags: HMW
HStem: 0 18<7 163 7 7> 150 29<158 308 158 319 145 308> 475 20G<249 257 257 257>
VStem: 7 156<0 18 0 18> 7 507<0 18 0 18>
LayerCount: 2
Fore
SplineSet
103 117 m 2xe0
 260 492 l 1
 270 492 l 1
 442 92 l 2
 466.587 34.8213 480 21 524 20 c 1
 524 2 l 1
 318 2 l 1
 318 20 l 1
 346 21 370 22 370 45 c 0
 370 57 364.896 69.9541 357 88 c 2
 329 152 l 1
 155 152 l 1
 134 100 l 2
 126.28 80.8848 121 69 121 54 c 0
 121 25 162 21 173 20 c 1
 173 2 l 1
 17 2 l 1
 17 20 l 1
 55 21 70.7979 40.084 103 117 c 2xe0
243 360 m 1
 170 182 l 1
 316 182 l 1
 243 360 l 1
EndSplineSet
EndChar

StartChar: b
Encoding: 98 98 65
Width: 481
Flags: HMW
HStem: 0 26<221.5 246> 233 26 457 26<208.5 226.5 16 238.5> 465 18<16 207>
VStem: 89 85<115 233 262 381 381 419.5> 332 94<337 380.5 311.5 395.5> 355 91<93.5 167.5 90 183.5>
LayerCount: 2
Fore
SplineSet
321 254 m 1xe8
 323 253 l 1
 377 235 437 194 437 130 c 0
 437 75 395 0 255 0 c 2
 12 0 l 1
 12 21 l 1
 75 23 79 39 79 86 c 2
 79 398 l 2
 79 445 76 463 12 466 c 1
 12 483 l 1xd8
 217 483 l 2
 339 483 418 440 418 353 c 0
 418 301 372 264 321 254 c 1xe8
206 460 m 2
 175 459 l 2
 169.003 458.807 168 454 168 446 c 2
 168 267 l 1
 226 265 l 2
 283.759 263.008 324 303 324 352 c 0
 324 408 284 460 206 460 c 2
284 222 m 0
 261 231 232 235 168 235 c 1
 168 44 l 2
 168 29 174 28 208 28 c 0
 285 28 346 59 346 133 c 0
 346 174 320 207 284 222 c 0
EndSplineSet
EndChar

StartChar: c
Encoding: 99 99 66
Width: 511
Flags: HMW
HStem: -13 32<299.5 361> 325 21G<490 507 490 490> 466 29<271.5 340.5>
VStem: 56 100<210.5 293.5>
LayerCount: 2
Fore
SplineSet
280 -10 m 0
 138 -10 38 89 38 237 c 0
 38 391 146 497 282 497 c 0
 321 497 348 487 369 481 c 0
 381 478 411 460 424 460 c 0
 448 460 446 481 452 498 c 1
 470 498 l 1
 487 328 l 1
 470 328 l 1
 448 401 376 469 292 469 c 0
 196 469 137 371 137 247 c 0
 137 80 211 22 305 22 c 0
 361 22 434 53 479 148 c 1
 496 140 l 1
 448 27 361 -10 280 -10 c 0
EndSplineSet
EndChar

StartChar: d
Encoding: 100 100 67
Width: 575
Flags: HMW
HStem: 0 29<17 296.5> 454 29<218.5 230 230 257 17 271.5> 465 18<17 230>
VStem: 90 85<102 367 367 396.5> 440 97<187 268.5>
LayerCount: 2
Fore
SplineSet
232 0 m 6xd8
 16 0 l 5
 16 18 l 5
 73 22 86 40 86 86 c 6
 86 398 l 6
 86 445 74 461 15 466 c 5
 15 483 l 5xb8
 223 483 l 6
 451 483 537 350 537 244 c 4
 537 143 455 0 232 0 c 6xd8
202 454 m 4xd8
 176.002 454.282 175 449 175 435 c 6
 175 48 l 6
 175 32 177 27 202 27 c 4
 332 27 440 80 440 239 c 4
 440 378.058 386 452 202 454 c 4xd8
EndSplineSet
EndChar

StartChar: e
Encoding: 101 101 68
Width: 438
Flags: HMW
HStem: 0 18<18 47 18 402 18 47> 0 26<230 286 286 331> 241 26<177 266 177 272> 457 26<177 279 177 177> 465 18<18 48>
VStem: 92 85<97 241 267 389 389 416.5> 347 18<165 343 165 343> 392 15
LayerCount: 2
Fore
SplineSet
384 0 m 1xa7
 12 0 l 1
 12 17 l 1
 64 17 73 41.75 73 86 c 2
 73 398 l 2
 73 442 69 460 13 464 c 1
 13 483 l 1
 386 483 l 1
 390 365 l 1
 370 365 l 1
 359 431 345 456 268 456 c 2
 174 456 l 2
 160 456 157 439 157 424 c 2
 157 266 l 1
 262 266 l 2
 320 266 323 295 331 343 c 1
 345 343 l 1
 345 163 l 1
 331 163 l 1
 322 224 315 240 262 240 c 2
 157 240 l 1
 157 65 l 2
 157 42 169 26 227 26 c 2
 246 26 l 2x6f
 343 26 360 46 396 122 c 1
 411 122 l 1
 384 0 l 1xa7
EndSplineSet
EndChar

StartChar: f
Encoding: 102 102 69
Width: 419
Flags: HMW
HStem: 0 18<20 49 20 404 20 49> 0 26<232 288 288 333> 241 26<179 268 179 274> 457 26<179 281 179 179> 465 18<20 50>
VStem: 94 85<97 241 267 389 389 416.5> 349 18<165 343 165 343> 394 15
LayerCount: 2
Fore
SplineSet
220 0 m 21xa7
 220 19 l 1
 168 19 159 43.75 159 88 c 2
 159 240 l 2
 254 240 l 2
 307 240 314 224 323 163 c 1
 337 163 l 1
 337 343 l 1
 323 343 l 1
 315 295 312 266 254 266 c 2
 159 266 l 1
 159 424 l 2
 159 439 162 456 176 456 c 2
 270 456 l 2
 347 456 361 431 372 365 c 1
 392 365 l 1
 388 483 l 1
 15 483 l 1
 15 464 l 1
 71 460 75 442 75 398 c 2
 75 86 l 2
 75 41.75 66 17 14 17 c 1
 14 0 l 9x6f
 220 0 l 21xa7
EndSplineSet
EndChar

StartChar: g
Encoding: 103 103 70
Width: 560
Flags: HMW
HStem: -13 31<291.5 343 291.5 356> 236 18<356 567 356 567> 469 26<269 325.5 210.5 340>
VStem: 38 99<187 280> 420 85<42 152 152 155 37 181.5>
LayerCount: 2
Fore
SplineSet
483 191 m 2
 483 34 l 1
 450 4 359 -10 298 -10 c 0
 200 -10 38 39 38 237 c 0
 38 386 143 493 289 493 c 0
 334 493 358 483 398 471 c 0
 405 469 418 465 422 465 c 0
 433 465 436 478 441 493 c 1
 471 493 l 1
 477 327 l 1
 459 327 l 1
 433 390 399 464 313 464 c 0
 183 464 136 325 136 238 c 0
 136 111 204 24 313 24 c 0
 365 24 398 40 398 52 c 2
 398 182 l 2
 398 231 392 233 335 237 c 1
 335 254 l 1
 533 254 l 1
 533 237 l 1
 488 234 483 228 483 191 c 2
EndSplineSet
EndChar

StartChar: h
Encoding: 104 104 71
Width: 529
Flags: HMW
HStem: 0 14 469 14
VStem: 87 74
LayerCount: 2
Fore
SplineSet
15 0 m 1
 15 19 l 1
 68 20 81 38 81 86 c 2
 81 398 l 2
 81 444 66 464 15 465 c 1
 15 483 l 1
 232 483 l 1
 232 463 l 1
 171 460 166 443 166 398 c 2
 166 270 l 1
 364 270 l 1
 364 398 l 2
 364 444 349 464 298 465 c 1
 298 483 l 1
 515 483 l 1
 515 463 l 1
 454 460 449 443 449 398 c 2
 449 86 l 2
 449 40 455 23 515 21 c 1
 515 0 l 1
 298 0 l 1
 298 19 l 1
 351 20 364 38 364 86 c 2
 364 222 l 1
 166 222 l 1
 166 86 l 2
 166 40 172 23 232 21 c 1
 232 0 l 1
 15 0 l 1
EndSplineSet
EndChar

StartChar: i
Encoding: 105 105 72
Width: 256
Flags: HMW
HStem: 0 14 469 14
VStem: 90 74
LayerCount: 2
Fore
SplineSet
19 0 m 1
 19 19 l 1
 72 20 85 38 85 86 c 2
 85 398 l 2
 85 444 70 464 19 465 c 1
 19 483 l 1
 236 483 l 1
 236 463 l 1
 175 460 170 443 170 398 c 2
 170 86 l 2
 170 40 176 23 236 21 c 1
 236 0 l 1
 19 0 l 1
EndSplineSet
EndChar

StartChar: j
Encoding: 106 106 73
Width: 319
Flags: HMW
HStem: -13 36<151 155.5> 465 18<103 343 309.5 343>
VStem: 184 85<161.5 204 204 376>
LayerCount: 2
Fore
SplineSet
239 206 m 2
 239 398 l 2
 239 444 248 460 307 465 c 1
 307 483 l 1
 79 483 l 1
 79 465 l 1
 138 460 152 444 152 398 c 2
 152 109 l 1
 151 47 147 25 125 25 c 0
 113 25 106 32 102 43 c 0
 94 63 86 82 58 82 c 0
 34 82 19 63 19 43 c 0
 19 12 56 -11 98 -11 c 0
 149 -11 185 19 204 48 c 1
 229 83 239 121 239 206 c 2
EndSplineSet
EndChar

StartChar: k
Encoding: 107 107 74
Width: 507
Flags: HMW
HStem: 0 18<3 36 3 236 3 36 313 318.5> 465 18<3 236 3 236 303 307.5>
VStem: 77 85<98 246 255 383 383 388>
LayerCount: 2
Fore
SplineSet
284 0 m 1
 284 17 l 1
 301 19 309 19 313 19 c 0
 333 19 333 37 333 39 c 0
 333 69 190 219 167 242 c 1
 167 86 l 2
 167 39 171 23 230 18 c 1
 230 0 l 1
 14 0 l 1
 14 18 l 1
 72 22 78 39 78 94 c 2
 78 398 l 2
 78 443 73 460 14 465 c 1
 14 483 l 1
 231 483 l 1
 231 464 l 1
 170 459 167 444 167 398 c 2
 167 260 l 1
 275 361 l 1
 312.189 399.896 331 429 331 440 c 0
 331 445 327 462 307 464 c 1
 284 464 l 1
 284 483 l 1
 483 483 l 1
 483 465 l 1
 429 461 417 453 370 407 c 2
 242 281 l 1
 404 104 l 2
 467.54 34.5762 476 19 517 18 c 1
 517 0 l 1
 284 0 l 1
EndSplineSet
EndChar

StartChar: l
Encoding: 108 108 75
Width: 463
Flags: HMW
HStem: 0 32<214 315 315 345 214 425> 465 18<19 260 219 260>
VStem: 93 85<99 377>
LayerCount: 2
Fore
SplineSet
159 395 m 2
 159 59 l 2
 159 44 162 32 176 32 c 2
 270 32 l 2
 369.5 32 403 73.5 427 135 c 1
 447 135 l 1
 403 0 l 1
 15 0 l 1
 15 19 l 1
 71 23 75 41 75 85 c 2
 75 397 l 2
 75 441.25 66 466 14 466 c 1
 14 483 l 9
 220 483 l 21
 220 464 l 1
 168 464 159 439.25 159 395 c 2
EndSplineSet
EndChar

StartChar: m
Encoding: 109 109 76
Width: 648
Flags: HMW
HStem: 0 18<21 207 21 21 595.5 630> 465 18<21 176>
VStem: 93 32<75 87 87 369 369 400> 476 82<98 108 108 389>
LayerCount: 2
Fore
SplineSet
417 0 m 1
 417 18 l 1
 476 22 475 39 475 94 c 2
 475 422 l 1
 314 0 l 1
 293 0 l 1
 125 399 l 1
 125 112 l 2
 125 44 145 21 201 18 c 1
 201 0 l 1
 18 0 l 1
 18 18 l 1
 78 22 93 43 93 112 c 2
 93 398 l 2
 93 444 83 460 20 463 c 1
 20 483 l 1
 174 483 l 1
 326 141 l 1
 471 483 l 1
 633 483 l 1
 633 465 l 1
 576 461 560 443 560 398 c 2
 560 86 l 2
 560 41 577 21 633 17 c 1
 633 0 l 1
 417 0 l 1
EndSplineSet
EndChar

StartChar: n
Encoding: 110 110 77
Width: 547
Flags: HMW
HStem: 0 18<150.5 189 4 4> 465 18<-17 -0.5>
VStem: 77 32<94 106 106 374> 432 32<136 360 360 383 0 402.5>
LayerCount: 2
Fore
SplineSet
416 358 m 2
 416 443 406 462 337 463 c 1
 337 483 l 1
 520 483 l 1
 519 463 l 1
 449 460 448.14 434 448 381 c 2
 453 -8 l 1
 435 -8 l 1
 99 373 l 1
 99 112 l 2
 99 44 123 21 179 18 c 1
 179 0 l 1
 -4 0 l 1
 -4 18 l 1
 56 22 65 42 65 112 c 2
 65 419 l 1
 38 449 31 462 -4 462 c 1
 -4 483 l 1
 108 483 l 1
 416 136 l 1
 416 358 l 2
EndSplineSet
EndChar

StartChar: o
Encoding: 111 111 78
Width: 552
Flags: HMW
HStem: -13 26<271 310 271 376> 469 26<220.5 367.5 211 368.5>
VStem: 51 97<194 254 194 298.5> 441 97<219 260>
LayerCount: 2
Fore
SplineSet
278 470 m 0
 127 470 130 271 130 239 c 0
 130 151 148 102 168 70 c 0
 188 38 230 14 276 14 c 0
 308 14 363 27 394 83 c 0
 418 126 423 199 423 241 c 0
 423 281 423 470 278 470 c 0
272 -10 m 0
 144 -10 38 89 38 242 c 0
 38 387 137 493 277 493 c 0
 415 493 515 390 515 239 c 0
 515 93 416 -10 272 -10 c 0
EndSplineSet
EndChar

StartChar: p
Encoding: 112 112 79
Width: 448
Flags: HMW
HStem: 0 14 469 14
VStem: 84 74
LayerCount: 2
Fore
SplineSet
168 86 m 2
 168 40 174 23 234 21 c 1
 234 0 l 1
 12 0 l 1
 12 21 l 1
 75 23 79 39 79 86 c 2
 79 398 l 2
 79 445 76 463 12 466 c 1
 12 483 l 1
 175 483 l 2
 246 483 290 480 323 467 c 0
 386 442 418 396 418 343 c 0
 418 285 376 210 259 210 c 0
 219 210 188 218 168 223 c 1
 168 86 l 2
169 447 m 1
 169 250 l 1
 182 246 203 239 229 239 c 0
 298 239 325 300 325 348 c 0
 325 395 299 454 217 454 c 0
 195 454 180 450 169 447 c 1
EndSplineSet
EndChar

StartChar: q
Encoding: 113 113 80
Width: 527
Flags: HMW
HStem: -128 18<546 546> 0 21G 469 26<282.5 365 213.5 368.5>
VStem: 51 97<194 257 194 301.5> 441 97<219 260>
LayerCount: 2
Fore
SplineSet
512 -129 m 1
 504 -130 513 -127 502 -127 c 1
 398.921 -119.551 322.068 -80.1807 251 -38 c 1
 204 -3 l 1
 122 26 38 95 38 238 c 0
 38 387 137 493 277 493 c 0
 416 493 515 387 515 240 c 0
 515 61 399 13 346 0 c 1
 403 -58 443 -105 525 -107 c 1
 525 -129 l 1
 512 -129 l 1
279 467 m 0
 166 467 135 329 135 243 c 0
 135 71 196.994 12 277 12 c 0
 391 12 418 151 418 241 c 0
 418 373 360 467 279 467 c 0
EndSplineSet
EndChar

StartChar: r
Encoding: 114 114 81
Width: 497
Flags: HMW
HStem: 0 14 469 14
VStem: 81 74
LayerCount: 2
Fore
SplineSet
166 85.9971 m 2
 166 40 172 23 232 21 c 1
 232 0 l 1
 15 0 l 1
 15 19 l 1
 68 20 81 38 81 86 c 2
 81 398 l 2
 81 444 66 464 15 465 c 1
 15 483 l 1
 206 483 l 2
 241 483 289 483 329 466 c 0xec
 350 457 410 430 410 358 c 0
 410 262 324 242 294 235 c 1
 416 83 l 2
 453 37 477 25 511 18 c 1
 511 0 l 1
 385 0 l 1
 206 224 l 1
 190 223 183 223 166 224 c 1
 166 85.9971 l 2
166 452 m 1
 166 250 l 1
 308 241 319 329 319 358 c 0
 319 424 267 457 217 457 c 0
 198 457 179 454 166 452 c 1
EndSplineSet
EndChar

StartChar: s
Encoding: 115 115 82
Width: 405
Flags: HMW
HStem: -13 29<206.5 248 185.5 280> 469 26<190.5 220.5 171.5 226.5>
VStem: 69 18<-13 151> 72 72<382 406.5> 314 74<86 113> 336 19<336 495 336 495>
LayerCount: 2
Fore
SplineSet
223 -10 m 0xc0
 182 -10 162 -1 126 11 c 0
 119 13 114 14 109 14 c 0
 104 14 98 9 98 -9 c 1
 78 -9 l 5
 55 157 l 5
 74 157 l 1
 111 67 152 33 209 33 c 0
 255 33 286 62 286 104 c 0
 286 216 65 214 65 365 c 0
 65 444 127 493 193 493 c 0
 227 493 251 483 281 473 c 0
 288 471 293 470 297 470 c 0
 303 470 308 473 312 493 c 1
 327 493 l 1
 344 326 l 1
 325 326 l 1
 300 417 251 448 205 448 c 0
 166 448 142 424 142 391 c 0
 142 292 372 274 372 127 c 0
 372 48 306 -10 223 -10 c 0xc0
EndSplineSet
EndChar

StartChar: t
Encoding: 116 116 83
Width: 488
Flags: HMW
HStem: 0 18<145 375 145 145> 450 33<125.5 150 150 217 302 375 302 302>
VStem: 49 15 217 85<100 450> 460 16
LayerCount: 2
Fore
SplineSet
441 368 m 1
 425 448 389 450 313 450 c 2
 284 450 l 1
 284 86 l 2
 284 39 289 21 351 18 c 1
 351 0 l 1
 130 0 l 1
 130 17 l 1
 191 21 195 38 195 94 c 2
 195 450 l 1
 166 450 l 2
 92 450 63 447 46 367 c 1
 29 367 l 1
 34 483 l 1
 451 483 l 5
 459 368 l 1
 441 368 l 1
EndSplineSet
EndChar

StartChar: u
Encoding: 117 117 84
Width: 506
Flags: HMW
HStem: -13 35<272 311> 465 18<10 249 214.5 249>
VStem: 87 85<174 368> 446 32<174 178 178 378>
LayerCount: 2
Fore
SplineSet
433 371 m 2
 433 187 l 2
 433 84 417 -10 259 -10 c 0
 134 -10 74 52 74 178 c 2
 74 398 l 2
 74 444 70 459 10 464 c 1
 10 483 l 1
 227 483 l 1
 227 464 l 1
 166 459 163 443 163 398 c 2
 163 172 l 2
 163 89 185 27 276 27 c 0
 327 27 367 47 385 77 c 4
 395 95 400 133 400 181 c 2
 400 371 l 2
 400 439 375 459 318 463 c 1
 318 483 l 1
 500 483 l 1
 500 463 l 1
 440 456 433 439 433 371 c 2
EndSplineSet
EndChar

StartChar: v
Encoding: 118 118 85
Width: 520
Flags: HMW
HStem: -13 21G<258 276 258 258> 465 18<3 200 3 200 352 365.5 487 511>
VStem: 3 508<465 483 465 483> 352 159<465 483 465 483>
LayerCount: 2
Fore
SplineSet
296 117 m 1xc0
 397 385 l 2
 404.27 404.29 410 416 410 431 c 0
 410 460 369 464 358 465 c 1
 358 483 l 1
 514 483 l 1
 514 465 l 1
 476 464 458.016 445.796 428 368 c 2
 281 -13 l 1
 263 -13 l 1
 89 393 l 2
 64.4824 450.208 51 464 7 465 c 1
 7 483 l 1
 207 483 l 1
 207 465 l 1
 179 464 161 463 161 440 c 0
 161 428 166.104 415.047 174 397 c 2
 202 333 l 1
 296 117 l 1xc0
EndSplineSet
EndChar

StartChar: w
Encoding: 119 119 86
Width: 750
Flags: HMW
HStem: -13 21G<266 284 266 266> 465 18<11 208 11 208 360 373.5 495 519>
VStem: 11 508<465 483 465 483> 360 159<465 483 465 483>
LayerCount: 2
Fore
SplineSet
542 117 m 1xc0
 635 385 l 2
 642.27 404.29 648 416 648 431 c 0
 648 460 607 464 596 465 c 1
 596 483 l 1
 752 483 l 1
 752 465 l 1
 714 464 696.016 445.796 666 368 c 1
 527 -13 l 1
 509 -13 l 1
 379.166 316.455 l 1
 246 -13 l 1
 228 -13 l 1
 80 393 l 1
 55.4824 450.208 47 464 3 465 c 1
 3 483 l 1
 198 483 l 1
 198 465 l 1
 170 464 152 463 152 440 c 0
 152 428 158.083 415.444 165 397 c 2
 189 333 l 1
 267 117 l 1
 360.723 363.253 l 1
 349 393 l 1
 324.482 450.208 316 464 272 465 c 1
 272 483 l 1
 467 483 l 1
 467 465 l 1
 439 464 425 463 425 440 c 0
 425 428 426.586 415.25 434 397 c 2
 460 333 l 1
 542 117 l 1xc0
EndSplineSet
EndChar

StartChar: x
Encoding: 120 120 87
Width: 539
Flags: HMW
HStem: 0 18<191 196 25 25 305 320.5 525.5 531> 465 18<25 258 242 249 249 258 352 368>
VStem: 25 171<0 18 0 18> 25 506<0 18 0 18 0 483 0 483> 352 163<465 483 465 483>
LayerCount: 2
Fore
SplineSet
288 295 m 1xc0
 369 407 l 2
 375.339 415.765 384 430 384 441 c 0
 384 446 381 465 349 465 c 1
 349 483 l 1
 512 483 l 1
 512 465 l 1
 486 463 443 460 377 369 c 1
 306 269 l 1
 432 79 l 2
 458.985 38.3076 479 22 521 18 c 1
 521 0 l 1
 294 0 l 1
 294 18 l 1
 311 20 319 20 322 20 c 0
 346 21 348 39 348 43 c 0
 348 65 261 186 251 198 c 1
 174 93 l 2
 171.043 88.9678 150 61 150 43 c 0
 150 19 179 18 189 18 c 1
 189 0 l 1
 18 0 l 1
 18 18 l 1
 59 17 96.9502 36.0361 157 119 c 2
 233 224 l 1
 152 346 l 2
 85.5674 446.059 73 463 23 465 c 1
 23 483 l 1
 254 483 l 1
 254 465 l 1
 225 465 l 2
 202 465 199 446 199 440 c 0
 199 416 269 322 288 295 c 1xc0
EndSplineSet
EndChar

StartChar: y
Encoding: 121 121 88
Width: 527
Flags: HMW
HStem: 0 18<145 385 145 145> 465 18<12 223 209.5 223 358 370>
VStem: 222 85<106 204 204 204> 358 157<465 483 465 483>
LayerCount: 2
Fore
SplineSet
412 376 m 2
 309 219 l 1
 309 86 l 2
 309 38 315 19 383 18 c 1
 383 0 l 1
 149 0 l 1
 149 18 l 1
 218 21 220 37 220 94 c 2
 220 213 l 1
 129 346 l 2
 60 447 60 464 14 464 c 1
 14 483 l 1
 228 483 l 1
 228 464 l 1
 218 464 170 468 173 440 c 0
 173.64 434.034 176.729 424.473 183 414 c 2
 289 247 l 1
 392 416 l 2
 398.129 427.508 401.426 434.022 401 438 c 0
 398 466 386 463 339 463 c 1
 339 483 l 1
 511 483 l 1
 511 464 l 1
 471 461 454 439 412 376 c 2
EndSplineSet
EndChar

StartChar: z
Encoding: 122 122 89
Width: 446
Flags: HMW
HStem: 0 29<178 374 374 422> 454 29<209.5 244 244 392>
VStem: 67 467<0 133 14 133>
LayerCount: 2
Fore
SplineSet
448 0 m 1
 37 0 l 1
 37 22 l 1
 348 454 l 1
 192 454 l 2
 84 454 78 398 70 345 c 1
 51 345 l 1
 67 483 l 1
 452 483 l 1
 452 461 l 1
 139 29 l 1
 314 29 l 2
 362 29 415 56 433 101 c 0
 438 112 441 123 447 141 c 1
 467 141 l 1
 448 0 l 1
EndSplineSet
EndChar

StartChar: tonos
Encoding: 900 900 90
Width: 267
Flags: MW
HStem: 560 215<70 171 70 171>
VStem: 115 83<734 734>
LayerCount: 2
Fore
SplineSet
198 736 m 0
 198 706 103 575 94 560 c 1
 70 560 l 1
 115 734 l 2
 121 757 135 775 163 775 c 0
 179 775 198 768 198 736 c 0
EndSplineSet
EndChar

StartChar: dieresistonos
Encoding: 901 901 91
Width: 333
Flags: MW
HStem: 515 79<41 62.5 41 62.5 41 128 41 159 269 290.5>
VStem: 13 79<543.5 565 543 565.5> 241 79<543.5 565 543 565.5>
LayerCount: 2
Fore
SplineSet
51 594 m 0
 74 594 92 576 92 554 c 0
 92 532 74 515 51 515 c 0
 30 515 13 532 13 555 c 0
 13 576 31 594 51 594 c 0
279 594 m 0
 302 594 320 576 320 554 c 0
 320 532 302 515 279 515 c 0
 258 515 241 532 241 555 c 0
 241 576 259 594 279 594 c 0
159 515 m 1
 128 515 l 1
 186 695 l 2
 194 719 209 729 231 729 c 0
 253 729 263 713 263 695 c 0
 263 690 260 676 254 669 c 1
 159 515 l 1
EndSplineSet
EndChar

StartChar: Alphatonos
Encoding: 902 902 92
Width: 722
Flags: MW
HStem: 0 19<189 213 15 15> 216 41<216 447 216 461 199 447> 654 20G<347 367 367 367>
LayerCount: 2
Fore
SplineSet
706 19 m 1
 706 0 l 1
 451 0 l 1
 451 19 l 1
 504 20 521 28 521 53 c 0
 521 67 514 93 502 120 c 2
 461 216 l 1
 199 216 l 1
 153 99 l 2
 148 86 145 72 145 60 c 0
 145 32 165 19 213 19 c 1
 213 0 l 1
 15 0 l 1
 15 19 l 1
 63 21 77 36 139 183 c 2
 347 674 l 1
 367 674 l 1
 616 106 l 2
 649 31 661 22 706 19 c 1
216 257 m 1
 447 257 l 1
 331 532 l 1
 216 257 l 1
EndSplineSet
EndChar

StartChar: anoteleia
Encoding: 903 903 93
Width: 250
Flags: MW
HStem: 352 118<108.5 141.5>
VStem: 66 118<394.5 427.5>
LayerCount: 2
Fore
SplineSet
184 411 m 0
 184 378 158 352 125 352 c 0
 92 352 66 378 66 411 c 0
 66 444 92 470 125 470 c 0
 158 470 184 444 184 411 c 0
EndSplineSet
EndChar

StartChar: Epsilontonos
Encoding: 904 904 94
Width: 611
Flags: MW
HStem: 0 19<12 552 12 12> 327 41<201 355 201 355> 624 38<220.5 234 234 369>
VStem: 99 102<109 327 368 553 553 588> 465 23<231 463 231 463> 521 25<519 519>
LayerCount: 2
Fore
SplineSet
201 80 m 2
 201 42 208 37 306 37 c 2
 333 37 l 2
 476 37 519 61 569 169 c 1
 597 169 l 1
 552 0 l 1
 12 0 l 1
 12 19 l 1
 85 24 99 39 99 109 c 2
 99 553 l 2
 99 623 86 637 12 643 c 1
 12 662 l 1
 543 662 l 1
 546 519 l 1
 521 519 l 1
 504 609 482 624 369 624 c 2
 234 624 l 2
 207 624 201 618 201 590 c 2
 201 368 l 1
 355 368 l 2
 448 368 454 397 465 463 c 1
 488 463 l 1
 488 231 l 1
 465 231 l 1
 452 314 437 327 355 327 c 2
 201 327 l 1
 201 80 l 2
EndSplineSet
EndChar

StartChar: Etatonos
Encoding: 905 905 95
Width: 722
Flags: MW
HStem: 0 19<19 297 19 19> 315 44<209 512 209 512> 643 19<19 297 19 297>
VStem: 107 102<120 315 359 553> 512 102<120 315 315 315 359 553>
LayerCount: 2
Fore
SplineSet
209 359 m 1
 512 359 l 1
 512 553 l 2
 512 625 501 636 424 643 c 1
 424 662 l 1
 702 662 l 1
 702 643 l 1
 625 636 614 625 614 553 c 2
 614 109 l 2
 614 38 627 25 702 19 c 1
 702 0 l 1
 424 0 l 1
 424 19 l 1
 502 24 512 36 512 120 c 2
 512 315 l 1
 209 315 l 1
 209 109 l 2
 209 38 222 25 297 19 c 1
 297 0 l 1
 19 0 l 1
 19 19 l 1
 97 24 107 36 107 120 c 2
 107 553 l 2
 107 625 96 636 19 643 c 1
 19 662 l 1
 297 662 l 1
 297 643 l 1
 220 636 209 625 209 553 c 2
 209 359 l 1
EndSplineSet
EndChar

StartChar: Iotatonos
Encoding: 906 906 96
Width: 333
Flags: MW
HStem: 0 19<18 315 18 18> 643 19<18 315 18 315>
VStem: 115 102<109 553>
LayerCount: 2
Fore
SplineSet
115 109 m 2
 115 553 l 2
 115 627 103 638 18 643 c 1
 18 662 l 1
 315 662 l 1
 315 643 l 1
 231 639 217 626 217 553 c 2
 217 109 l 2
 217 36 233 22 315 19 c 1
 315 0 l 1
 18 0 l 1
 18 19 l 1
 102 22 115 34 115 109 c 2
EndSplineSet
EndChar

StartChar: Omicrontonos
Encoding: 908 908 97
Width: 722
Flags: MW
HStem: -14 36<274.5 445 274.5 453.5> 640 36<275 405>
VStem: 34 114<268.5 391 268.5 431.5> 574 114<268 431.5 226.5 452.5>
LayerCount: 2
Fore
SplineSet
355 -14 m 0
 180 -14 34 121 34 331 c 0
 34 532 170 676 361 676 c 0
 551 676 688 536 688 327 c 0
 688 126 552 -14 355 -14 c 0
574 328 m 0
 574 577 449 640 361 640 c 0
 189 640 148 453 148 329 c 0
 148 208 190 22 359 22 c 0
 531 22 574 208 574 328 c 0
EndSplineSet
EndChar

StartChar: Upsilontonos
Encoding: 910 910 98
Width: 696
Flags: MW
HStem: 0 18<217 241 477.5 501 217 241> 602 70<145.5 203.5 518.5 587.5>
VStem: 307 104<82 293 293 299>
LayerCount: 2
Fore
SplineSet
307 293 m 2
 307 585 233 602 174 602 c 0
 72 602 84 558 51 558 c 0
 43 558 41 562 41 575 c 0
 41 623 121 672 170 672 c 0
 288 672 330 594 360 425 c 1
 384 591 440 672 563 672 c 0
 612 672 677 623 677 575 c 0
 677 562 676 556 668 556 c 0
 642 556 651 602 548 602 c 0
 489 602 411 579 411 299 c 2
 411 82 l 2
 411 24 454 18 501 18 c 1
 501 0 l 1
 217 0 l 1
 217 18 l 1
 265 18 307 23 307 82 c 2
 307 293 l 2
EndSplineSet
EndChar

StartChar: Alpha
Encoding: 913 913 100
Width: 722
Flags: MW
HStem: 0 19<189 213 15 15> 216 41<216 447 216 461 199 447> 654 20G<347 367 367 367>
LayerCount: 2
Fore
SplineSet
706 19 m 1
 706 0 l 1
 451 0 l 1
 451 19 l 1
 504 20 521 28 521 53 c 0
 521 67 514 93 502 120 c 2
 461 216 l 1
 199 216 l 1
 153 99 l 2
 148 86 145 72 145 60 c 0
 145 32 165 19 213 19 c 1
 213 0 l 1
 15 0 l 1
 15 19 l 1
 63 21 77 36 139 183 c 2
 347 674 l 1
 367 674 l 1
 616 106 l 2
 649 31 661 22 706 19 c 1
216 257 m 1
 447 257 l 1
 331 532 l 1
 216 257 l 1
EndSplineSet
EndChar

StartChar: Beta
Encoding: 914 914 101
Width: 667
Flags: MW
HStem: 0 19<17 351 17 17> 326 40<215 265> 625 37<229.5 237 237 281>
VStem: 113 102<109 326 366 553 553 590> 478 115<144 210.5>
LayerCount: 2
Fore
SplineSet
593 180 m 0
 593 108 545 0 351 0 c 2
 17 0 l 1
 17 19 l 1
 100 22 113 35 113 109 c 2
 113 553 l 2
 113 627 101 638 17 643 c 1
 17 662 l 1
 297 662 l 2
 470 662 559 604 559 492 c 0
 559 377 457 357 422 348 c 1
 462 338 593 310 593 180 c 0
278 37 m 0
 387 37 478 61 478 179 c 0
 478 242 451 282 394 306 c 0
 358 321 315 326 215 326 c 1
 215 78 l 2
 215 46 229 37 278 37 c 0
215 366 m 1
 310 366 l 2
 404 366 457 410 457 488 c 0
 457 577 396 625 281 625 c 2
 237 625 l 2
 222 625 215 616 215 595 c 2
 215 366 l 1
EndSplineSet
EndChar

StartChar: Gamma
Encoding: 915 915 102
Width: 586
Flags: MW
HStem: 0 19<12 292 12 12> 643 19<12 543>
VStem: 99 102<120 553 553 589> 521 25<519 519>
LayerCount: 2
Fore
SplineSet
546 519 m 1
 521 519 l 1
 504 620 460 624 369 624 c 2
 233 624 l 2
 206 624 201 616 201 590 c 2
 201 109 l 2
 201 36 221 22 292 19 c 1
 292 0 l 1
 12 0 l 1
 12 19 l 1
 91 23 99 45 99 120 c 2
 99 553 l 2
 99 625 82 638 12 643 c 1
 12 662 l 1
 543 662 l 1
 546 519 l 1
EndSplineSet
EndChar

StartChar: Delta
Encoding: 916 916 103
Width: 660
Flags: MW
HStem: 0 34<59 504 59 630> 654 20G<310 319 319 319>
LayerCount: 2
Fore
SplineSet
630 0 m 1
 0 0 l 1
 310 674 l 1
 319 674 l 1
 630 0 l 1
504 34 m 1
 284 511 l 1
 59 34 l 1
 504 34 l 1
EndSplineSet
EndChar

StartChar: Epsilon
Encoding: 917 917 104
Width: 611
Flags: MW
HStem: 0 19<12 552 12 12> 327 41<201 355 201 355> 624 38<220.5 234 234 369>
VStem: 99 102<109 327 368 553 553 588> 465 23<231 463 231 463> 521 25<519 519>
LayerCount: 2
Fore
SplineSet
201 80 m 2
 201 42 208 37 306 37 c 2
 333 37 l 2
 476 37 519 61 569 169 c 1
 597 169 l 1
 552 0 l 1
 12 0 l 1
 12 19 l 1
 85 24 99 39 99 109 c 2
 99 553 l 2
 99 623 86 637 12 643 c 1
 12 662 l 1
 543 662 l 1
 546 519 l 1
 521 519 l 1
 504 609 482 624 369 624 c 2
 234 624 l 2
 207 624 201 618 201 590 c 2
 201 368 l 1
 355 368 l 2
 448 368 454 397 465 463 c 1
 488 463 l 1
 488 231 l 1
 465 231 l 1
 452 314 437 327 355 327 c 2
 201 327 l 1
 201 80 l 2
EndSplineSet
EndChar

StartChar: Zeta
Encoding: 918 918 105
Width: 611
Flags: MW
HStem: 0 38<145 402 402 469.5> 624 38<154 225 225 446>
VStem: 31 26<491 491> 574 23<176 176>
LayerCount: 2
Fore
SplineSet
402 38 m 2
 537 38 554 110 574 176 c 1
 597 176 l 1
 573 0 l 1
 9 0 l 1
 9 15 l 1
 446 624 l 1
 225 624 l 2
 83 624 69 559 57 491 c 1
 31 491 l 1
 51 662 l 1
 577 662 l 1
 577 647 l 1
 145 38 l 1
 402 38 l 2
EndSplineSet
EndChar

StartChar: Eta
Encoding: 919 919 106
Width: 722
Flags: MW
HStem: 0 19<19 297 19 19> 315 44<209 512 209 512> 643 19<19 297 19 297>
VStem: 107 102<120 315 359 553> 512 102<120 315 315 315 359 553>
LayerCount: 2
Fore
SplineSet
209 359 m 1
 512 359 l 1
 512 553 l 2
 512 625 501 636 424 643 c 1
 424 662 l 1
 702 662 l 1
 702 643 l 1
 625 636 614 625 614 553 c 2
 614 109 l 2
 614 38 627 25 702 19 c 1
 702 0 l 1
 424 0 l 1
 424 19 l 1
 502 24 512 36 512 120 c 2
 512 315 l 1
 209 315 l 1
 209 109 l 2
 209 38 222 25 297 19 c 1
 297 0 l 1
 19 0 l 1
 19 19 l 1
 97 24 107 36 107 120 c 2
 107 553 l 2
 107 625 96 636 19 643 c 1
 19 662 l 1
 297 662 l 1
 297 643 l 1
 220 636 209 625 209 553 c 2
 209 359 l 1
EndSplineSet
EndChar

StartChar: Theta
Encoding: 920 920 107
Width: 726
Flags: MW
HStem: -12 36<292 448.5 292 467> 293 71<283 443 297 443> 641 32<292 449.5>
VStem: 30 108<261.5 398 261.5 426.5> 232 16<233 245.5 233 426> 497 17<233 249 420 426> 606 108<262.5 398>
LayerCount: 2
Fore
SplineSet
714 331 m 0
 714 141 562 -12 372 -12 c 0
 182 -12 30 141 30 331 c 0
 30 522 181 673 372 673 c 0
 563 673 714 522 714 331 c 0
606 330 m 0
 606 466 528 641 371 641 c 0
 213 641 138 466 138 330 c 0
 138 193 213 24 371 24 c 0
 526 24 606 195 606 330 c 0
514 233 m 1
 497 233 l 1
 497 265 477 293 443 293 c 2
 297 293 l 2
 269 293 248 258 248 233 c 1
 232 233 l 1
 232 426 l 1
 249 426 l 1
 249 402 270 364 297 364 c 2
 443 364 l 2
 475 364 497 390 497 420 c 2
 497 426 l 1
 514 426 l 1
 514 233 l 1
EndSplineSet
EndChar

StartChar: Iota
Encoding: 921 921 108
Width: 333
Flags: MW
HStem: 0 19<18 315 18 18> 643 19<18 315 18 315>
VStem: 115 102<109 553>
LayerCount: 2
Fore
SplineSet
115 109 m 2
 115 553 l 2
 115 627 103 638 18 643 c 1
 18 662 l 1
 315 662 l 1
 315 643 l 1
 231 639 217 626 217 553 c 2
 217 109 l 2
 217 36 233 22 315 19 c 1
 315 0 l 1
 18 0 l 1
 18 19 l 1
 102 22 115 34 115 109 c 2
EndSplineSet
EndChar

StartChar: Kappa
Encoding: 922 922 109
Width: 722
Flags: MW
HStem: 0 19<34 316 34 34> 643 19<34 318 34 318>
VStem: 124 102<120 296 348 553>
LayerCount: 2
Fore
SplineSet
413 643 m 1
 413 662 l 1
 675 662 l 1
 675 643 l 1
 607 638 590 631 523 565 c 2
 333 377 l 1
 566 127 l 2
 657 30 671 20 723 19 c 1
 723 0 l 1
 418 0 l 1
 418 19 l 1
 430 20 441 20 446 20 c 0
 474 21 488 28 488 42 c 0
 488 66 434 137 358 212 c 2
 252 317 l 1
 226 296 l 1
 226 109 l 2
 226 36 238 24 316 19 c 1
 316 0 l 1
 34 0 l 1
 34 19 l 1
 113 24 124 37 124 120 c 2
 124 553 l 2
 124 624 112 637 34 643 c 1
 34 662 l 1
 318 662 l 1
 318 643 l 1
 237 637 226 626 226 553 c 2
 226 348 l 1
 403 509 l 2
 458 559 481 590 481 612 c 0
 481 632 469 640 439 642 c 0
 435 642 425 642 413 643 c 1
EndSplineSet
EndChar

StartChar: Lambda
Encoding: 923 923 110
Width: 722
Flags: MW
HStem: 0 19<198.5 213 15 15 451 459 459 473> 654 20G<347 367 367 367>
LayerCount: 2
Fore
SplineSet
706 0 m 1
 451 0 l 1
 451 19 l 1
 459 19 l 2
 487 19 521 21 521 57 c 0
 521 76 509 102 502 120 c 2
 331 532 l 1
 153 99 l 2
 148 87 145 74 145 61 c 0
 145 23 184 19 213 19 c 1
 213 0 l 1
 15 0 l 1
 15 19 l 1
 84 22 116 129 139 183 c 2
 347 674 l 1
 367 674 l 1
 616 106 l 2
 636 60 649 23 706 19 c 1
 706 0 l 1
EndSplineSet
EndChar

StartChar: Mu
Encoding: 924 924 111
Width: 889
Flags: MW
HStem: 0 19<12 247 12 12> 643 19<14 212>
VStem: 109 44<147 550> 674 102<120 553>
LayerCount: 2
Fore
SplineSet
674 573 m 1
 418 0 l 1
 404 0 l 1
 153 550 l 1
 153 147 l 2
 153 46 170 23 247 19 c 1
 247 0 l 1
 12 0 l 1
 12 19 l 1
 95 25 109 44 109 147 c 2
 109 553 l 2
 109 626 96 638 14 643 c 1
 14 662 l 1
 212 662 l 1
 443 157 l 1
 664 662 l 1
 863 662 l 1
 863 643 l 1
 789 637 776 624 776 553 c 2
 776 109 l 2
 776 38 790 24 863 19 c 1
 863 0 l 1
 583 0 l 1
 583 19 l 1
 662 24 674 37 674 120 c 2
 674 573 l 1
EndSplineSet
EndChar

StartChar: Nu
Encoding: 925 925 112
Width: 722
Flags: MW
HStem: 0 19<12 247 12 12> 643 19<12 33.5>
VStem: 109 44<147 539> 568 44<178 515 -11 567>
LayerCount: 2
Fore
SplineSet
707 643 m 1
 646 637 612 632 612 515 c 2
 612 -11 l 1
 595 -11 l 1
 153 539 l 1
 153 147 l 2
 153 46 170 23 247 19 c 1
 247 0 l 1
 12 0 l 1
 12 19 l 1
 95 25 109 44 109 147 c 2
 109 588 l 1
 69 635 55 643 12 643 c 1
 12 662 l 1
 183 662 l 1
 568 178 l 1
 568 515 l 2
 568 619 549 637 472 643 c 1
 472 662 l 1
 707 662 l 1
 707 643 l 1
EndSplineSet
EndChar

StartChar: Xi
Encoding: 926 926 113
Width: 628
Flags: MW
HStem: 0 84<162 485 485 508.5 162 571> 289 88<219 400 237 400> 578 84<124 159 159 472>
VStem: 61 15<145.5 175 145.5 175 145.5 175> 164 14<223 229 420.5 439> 459 14<223 242> 557 14<168 175 487 517.5>
LayerCount: 2
Fore
SplineSet
571 487 m 1
 557 487 l 1
 557 548 536 578 472 578 c 2
 159 578 l 2
 89 578 84 547 76 487 c 1
 61 487 l 1
 61 662 l 1
 571 662 l 1
 571 487 l 1
473 223 m 1
 459 223 l 1
 459 261 441 289 400 289 c 2
 237 289 l 2
 201 289 178 263 178 229 c 2
 178 223 l 1
 164 223 l 1
 164 439 l 1
 178 439 l 1
 178 402 199 377 237 377 c 2
 400 377 l 2
 429 377 460 400 460 430 c 0
 460 433 460 436 459 439 c 1
 473 439 l 1
 473 223 l 1
571 0 m 1
 61 0 l 1
 61 175 l 1
 76 175 l 1
 76 116 101 84 162 84 c 2
 485 84 l 2
 532 84 557 124 557 168 c 2
 557 175 l 1
 571 175 l 1
 571 0 l 1
EndSplineSet
EndChar

StartChar: Omicron
Encoding: 927 927 114
Width: 722
Flags: MW
HStem: -14 36<274.5 445 274.5 453.5> 640 36<275 405>
VStem: 34 114<268.5 391 268.5 431.5> 574 114<268 431.5 226.5 452.5>
LayerCount: 2
Fore
SplineSet
355 -14 m 0
 180 -14 34 121 34 331 c 0
 34 532 170 676 361 676 c 0
 551 676 688 536 688 327 c 0
 688 126 552 -14 355 -14 c 0
574 328 m 0
 574 577 449 640 361 640 c 0
 189 640 148 453 148 329 c 0
 148 208 190 22 359 22 c 0
 531 22 574 208 574 328 c 0
EndSplineSet
EndChar

StartChar: Pi
Encoding: 928 928 115
Width: 722
Flags: MW
HStem: 0 19<19 297 19 19> 643 19<19 702 19 702>
VStem: 107 102<120 553 553 590.5> 512 102<120 553>
LayerCount: 2
Fore
SplineSet
702 0 m 1
 424 0 l 1
 424 19 l 1
 505 23 512 44 512 120 c 2
 512 618 l 1
 209 618 l 1
 209 109 l 2
 209 37 226 23 297 19 c 1
 297 0 l 1
 19 0 l 1
 19 19 l 1
 100 23 107 44 107 120 c 2
 107 553 l 2
 107 628 91 637 19 643 c 1
 19 662 l 1
 702 662 l 1
 702 643 l 1
 630 638 614 627 614 553 c 2
 614 109 l 2
 614 37 631 23 702 19 c 1
 702 0 l 1
EndSplineSet
EndChar

StartChar: Rho
Encoding: 929 929 116
Width: 556
Flags: MW
HStem: 0 19<16 296 16 16> 288 40<258 316.5 249 386> 625 37<222.5 280 280 303.5>
VStem: 100 102<120 291 331 553 553 589> 433 109<442.5 526.5>
LayerCount: 2
Fore
SplineSet
542 481 m 0
 542 404 501 288 271 288 c 0
 245 288 228 289 202 291 c 1
 202 109 l 2
 202 36 217 22 296 19 c 1
 296 0 l 1
 16 0 l 1
 16 19 l 1
 92 26 100 36 100 120 c 2
 100 553 l 2
 100 625 90 635 16 643 c 1
 16 662 l 1
 280 662 l 2
 388 662 542 626 542 481 c 0
202 591 m 2
 202 331 l 1
 225 329 239 328 259 328 c 0
 374 328 433 378 433 475 c 0
 433 578 371 625 236 625 c 0
 209 625 202 618 202 591 c 2
EndSplineSet
EndChar

StartChar: Sigma
Encoding: 931 931 117
Width: 627
Flags: MW
HStem: 0 87<163 468 468 492 163 562> 630 31<203 209 209 373>
VStem: 544 18<172 179>
LayerCount: 2
Fore
SplineSet
562 0 m 1
 14 0 l 1
 346 332 l 1
 16 661 l 1
 550 661 l 1
 562 484 l 1
 546 484 l 1
 536 571 459 630 373 630 c 2
 209 630 l 2
 197 630 177 628 177 612 c 0
 177 599 401 384 431 354 c 1
 163 87 l 1
 468 87 l 2
 516 87 544 127 544 172 c 2
 544 179 l 1
 562 179 l 1
 562 0 l 1
EndSplineSet
EndChar

StartChar: Tau
Encoding: 932 932 118
Width: 611
Flags: MW
HStem: 0 19<160 452 160 160> 620 42<144 200 200 254 356 356 356 410>
VStem: 17 24<492 492> 254 102<120 620> 569 24<492 492>
LayerCount: 2
Fore
SplineSet
254 620 m 1
 200 620 l 2
 88 620 65 601 41 492 c 1
 17 492 l 1
 23 662 l 1
 587 662 l 1
 593 492 l 1
 569 492 l 1
 546 602 524 620 410 620 c 2
 356 620 l 1
 356 109 l 2
 356 36 370 23 452 19 c 1
 452 0 l 1
 160 0 l 1
 160 19 l 1
 243 24 254 35 254 120 c 2
 254 620 l 1
EndSplineSet
EndChar

StartChar: Upsilon
Encoding: 933 933 119
Width: 696
Flags: MW
HStem: 0 18<217 241 477.5 501 217 241> 602 70<145.5 203.5 518.5 587.5>
VStem: 307 104<82 293 293 299>
LayerCount: 2
Fore
SplineSet
307 293 m 2
 307 585 233 602 174 602 c 0
 72 602 84 558 51 558 c 0
 43 558 41 562 41 575 c 0
 41 623 121 672 170 672 c 0
 288 672 330 594 360 425 c 1
 384 591 440 672 563 672 c 0
 612 672 677 623 677 575 c 0
 677 562 676 556 668 556 c 0
 642 556 651 602 548 602 c 0
 489 602 411 579 411 299 c 2
 411 82 l 2
 411 24 454 18 501 18 c 1
 501 0 l 1
 217 0 l 1
 217 18 l 1
 265 18 307 23 307 82 c 2
 307 293 l 2
EndSplineSet
EndChar

StartChar: Phi
Encoding: 934 934 120
Width: 742
Flags: MW
HStem: 0 15<500 509 223 223> 112 29<250.5 305.5> 529 31<258.5 308 240.5 317 428 473> 647 15<221 233 221 519 221 519>
VStem: 25 104<284 406.5 284 415> 317 100<75.5 113 141 529> 609 106<307 402.5>
LayerCount: 2
Fore
SplineSet
715 346 m 0
 715 268 689 203 618 164 c 0
 572 138 499 111 441 111 c 0
 432 111 424 112 417 113 c 1
 417 102 l 2
 417 49 448 15 500 15 c 2
 509 15 l 1
 509 0 l 1
 223 0 l 1
 223 15 l 1
 231 14 l 1
 295 14 318 50 318 108 c 1
 317 113 l 1
 312 112 308 112 303 112 c 0
 164 112 25 187 25 340 c 0
 25 490 175 560 306 560 c 0
 310 560 313 560 317 559 c 1
 317 619 291 647 233 647 c 2
 221 647 l 1
 221 662 l 1
 519 662 l 1
 519 647 l 1
 515 648 510 649 506 649 c 0
 436 649 423 619 417 559 c 1
 421 560 426 560 430 560 c 0
 561 560 715 496 715 346 c 0
609 345 m 0
 609 460 529 529 417 529 c 1
 417 141 l 1
 545 141 609 221 609 345 c 0
317 141 m 1
 317 529 l 1
 200 529 129 466 129 347 c 0
 129 221 184 141 317 141 c 1
EndSplineSet
EndChar

StartChar: Chi
Encoding: 935 935 121
Width: 722
Flags: MW
HStem: 0 19<10 243 10 10> 643 19<22 324 22 324>
LayerCount: 2
Fore
SplineSet
696 662 m 1
 696 643 l 1
 632 639 611 628 547 549 c 2
 401 367 l 1
 593 93 l 2
 634 34 651 25 704 19 c 1
 704 0 l 1
 407 0 l 1
 407 19 l 1
 419 20 430 21 434 21 c 0
 468 22 484 32 484 50 c 0
 484 65 466 99 433 148 c 2
 338 288 l 1
 219 140 l 2
 182 94 167 69 167 54 c 0
 167 31 185 23 243 19 c 1
 243 0 l 1
 10 0 l 1
 10 19 l 1
 61 23 68 26 155 133 c 2
 312 326 l 1
 203 486 l 2
 107 627 87 640 22 643 c 1
 22 662 l 1
 324 662 l 1
 324 643 l 1
 296 642 l 2
 263 641 248 633 248 613 c 0
 248 591 272 548 333 463 c 2
 375 404 l 1
 488 542 l 2
 517 578 528 596 528 611 c 0
 528 634 512 641 458 643 c 1
 458 662 l 1
 696 662 l 1
EndSplineSet
EndChar

StartChar: Psi
Encoding: 936 936 122
Width: 808
Flags: MW
HStem: 0 15<246 266 527 548 246 266> 196 35<281.5 319 475 512.5> 595 73<80.5 118.5 675.5 713.5>
VStem: 167 44<526.5 575.5> 346 102<85 198 231 576 576 577> 620 99<315.5 395>
LayerCount: 2
Fore
SplineSet
102 595 m 0
 56 595 46 573 33 573 c 0
 24 573 18 576 18 586 c 0
 18 620 61 668 100 668 c 0
 163 668 211 629 211 551 c 0
 211 488 174 430 174 360 c 0
 174 262 217 231 346 231 c 1
 346 576 l 2
 346 634 303 640 256 647 c 1
 256 662 l 1
 538 662 l 1
 538 647 l 1
 494 644 448 630 448 577 c 2
 448 231 l 1
 577 231 620 262 620 360 c 0
 620 430 583 488 583 551 c 0
 583 629 631 668 694 668 c 0
 733 668 776 620 776 586 c 0
 776 576 770 573 761 573 c 0
 748 573 738 595 692 595 c 0
 659 595 627 594 627 557 c 0
 627 496 719 467 719 354 c 0
 719 277 638 196 482 196 c 0
 468 196 468 196 448 198 c 1
 448 85 l 2
 448 57 506 15 548 15 c 1
 548 0 l 1
 246 0 l 1
 246 15 l 1
 286 15 346 36 346 85 c 2
 346 198 l 1
 326 196 326 196 312 196 c 0
 156 196 75 277 75 354 c 0
 75 467 167 496 167 557 c 0
 167 594 135 595 102 595 c 0
EndSplineSet
EndChar

StartChar: Omega
Encoding: 937 937 123
Width: 743
Flags: MW
HStem: 0 81<129 260 129 303 483 617 617 647.5> 640 36<311.5 412>
VStem: 25 24<153 153> 54 114<317.5 461 317.5 467.5> 575 114<325.5 479 325.5 484.5> 694 24<153 153>
LayerCount: 2
Fore
SplineSet
25 153 m 1
 49 153 l 1
 52 106 74 81 129 81 c 2
 260 81 l 1
 259 124 l 1
 175 140 54 225 54 389 c 0
 54 546 179 676 375 676 c 0
 558 676 689 565 689 393 c 0
 689 258 613 160 488 124 c 1
 483 81 l 1
 617 81 l 2
 678 81 693 117 694 153 c 1
 718 153 l 1
 712 0 l 1
 440 0 l 1
 453 147 l 1
 537 174 575 251 575 380 c 0
 575 589 451 640 373 640 c 0
 250 640 168 535 168 387 c 0
 168 248 218 175 293 147 c 1
 303 0 l 1
 31 0 l 1
 25 153 l 1
EndSplineSet
EndChar

StartChar: Iotadieresis
Encoding: 938 938 124
Width: 333
Flags: MW
HStem: 0 19<18 315 18 18> 643 19<18 315 18 315> 737 99<53.5 80 53.5 80 252.5 279>
VStem: 18 99<773 799.5 772.5 800> 217 99<773 799.5 772.5 800>
LayerCount: 2
Fore
SplineSet
66 836 m 0
 94 836 117 813 117 786 c 0
 117 759 94 737 66 737 c 0
 39 737 18 759 18 787 c 0
 18 813 41 836 66 836 c 0
265 836 m 0
 293 836 316 813 316 786 c 0
 316 759 293 737 265 737 c 0
 238 737 217 759 217 787 c 0
 217 813 240 836 265 836 c 0
115 109 m 2
 115 553 l 2
 115 627 103 638 18 643 c 1
 18 662 l 1
 315 662 l 1
 315 643 l 1
 231 639 217 626 217 553 c 2
 217 109 l 2
 217 36 233 22 315 19 c 1
 315 0 l 1
 18 0 l 1
 18 19 l 1
 102 22 115 34 115 109 c 2
EndSplineSet
EndChar

StartChar: Upsilondieresis
Encoding: 939 939 125
Width: 718
Flags: MW
HStem: 0 18<217 241 477.5 501 217 241> 602 70<145.5 203.5 518.5 587.5> 735 99<247.5 274 247.5 274 446.5 473>
VStem: 212 99<771 797.5 770.5 798> 411 99<771 797.5 770.5 798>
LayerCount: 2
Fore
SplineSet
260 834 m 0
 288 834 311 811 311 784 c 0
 311 757 288 735 260 735 c 0
 233 735 212 757 212 785 c 0
 212 811 235 834 260 834 c 0
459 834 m 0
 487 834 510 811 510 784 c 0
 510 757 487 735 459 735 c 0
 432 735 411 757 411 785 c 0
 411 811 434 834 459 834 c 0
307 293 m 2
 307 585 233 602 174 602 c 0
 72 602 84 558 51 558 c 0
 43 558 41 562 41 575 c 0
 41 623 121 672 170 672 c 0
 288 672 330 594 360 425 c 1
 384 591 440 672 563 672 c 0
 612 672 677 623 677 575 c 0
 677 562 676 556 668 556 c 0
 642 556 651 602 548 602 c 0
 489 602 411 579 411 299 c 2
 411 82 l 2
 411 24 454 18 501 18 c 1
 501 0 l 1
 217 0 l 1
 217 18 l 1
 265 18 307 23 307 82 c 2
 307 293 l 2
EndSplineSet
EndChar

StartChar: alpha
Encoding: 945 945 126
Width: 521
Flags: HMW
HStem: 0 18<-3 153 -3 -3> 150 29<148 298 148 309 135 298> 475 20G<239 247 247 247>
VStem: -3 156<0 18 0 18> -3 507<0 18 0 18>
LayerCount: 2
Fore
SplineSet
93 117 m 2xe0
 250 492 l 1
 260 492 l 1
 432 92 l 2
 456.587 34.8213 470 21 514 20 c 1
 514 2 l 1
 308 2 l 1
 308 20 l 1
 336 21 360 22 360 45 c 0
 360 57 354.896 69.9541 347 88 c 2
 319 152 l 1
 145 152 l 1
 124 100 l 2
 116.28 80.8848 111 69 111 54 c 0
 111 25 152 21 163 20 c 1
 163 2 l 1
 7 2 l 1
 7 20 l 1
 45 21 60.7979 40.084 93 117 c 2xe0
233 360 m 1
 160 182 l 1
 306 182 l 1
 233 360 l 1
EndSplineSet
EndChar

StartChar: beta
Encoding: 946 946 127
Width: 486
Flags: HMW
HStem: 0 26<225.5 250> 233 26 457 26<212.5 230.5 20 242.5> 465 18<20 211>
VStem: 93 85<115 233 262 381 381 419.5> 336 94<337 380.5 311.5 395.5> 359 91<93.5 167.5 90 183.5>
LayerCount: 2
Fore
SplineSet
325 254 m 1xe8
 327 253 l 1
 381 235 441 194 441 130 c 0
 441 75 399 0 259 0 c 2
 16 0 l 1
 16 21 l 1
 79 23 83 39 83 86 c 2
 83 398 l 2
 83 445 80 463 16 466 c 1
 16 483 l 1xd8
 221 483 l 2
 343 483 422 440 422 353 c 0
 422 301 376 264 325 254 c 1xe8
210 460 m 2
 179 459 l 2
 173.003 458.807 172 454 172 446 c 2
 172 267 l 1
 230 265 l 2
 287.759 263.008 328 303 328 352 c 0
 328 408 288 460 210 460 c 2
288 222 m 0
 265 231 236 235 172 235 c 1
 172 44 l 2
 172 29 178 28 212 28 c 0
 289 28 350 59 350 133 c 0
 350 174 324 207 288 222 c 0
EndSplineSet
EndChar

StartChar: gamma
Encoding: 947 947 128
Width: 423
Flags: HMW
HStem: 0 18<20 49 20 404 20 49> 0 26<232 288 288 333> 241 26<179 268 179 274> 457 26<179 281 179 179> 465 18<20 50>
VStem: 94 85<97 241 267 389 389 416.5> 349 18<165 343 165 343> 394 15
LayerCount: 2
Fore
SplineSet
214.801 0 m 1xa7
 214.605 17.4033 l 1
 162.605 17.4033 157.606 42.1533 157.605 86.4033 c 2
 159 266 l 1
 159 424 l 2
 159 439 162 456 176 456 c 2
 270 456 l 2
 347 456 361 431 372 365 c 1
 392 365 l 1
 388 483 l 1
 15 483 l 1
 15 464 l 1
 71 460 75 442 75 398 c 2
 75 86 l 2
 75 41.75 66 17 14 17 c 1
 14 0 l 1x6f
 214.801 0 l 1xa7
EndSplineSet
EndChar

StartChar: delta
Encoding: 948 948 129
Width: 480
Flags: HMW
HStem: -13 21G<262 280 262 262> 465 18<7 204 7 204 356 369.5 491 515>
VStem: 7 508<465 483 465 483> 356 159<465 483 465 483>
LayerCount: 2
Fore
SplineSet
460 0 m 1xc0
 231 490 l 1
 221 490 l 1
 0 0 l 1
 290 0 l 1
 460 0 l 1xc0
202 360 m 1
 358 26 l 1
 48 26 l 1
 202 360 l 1
EndSplineSet
EndChar

StartChar: epsilon
Encoding: 949 949 130
Width: 444
Flags: HMW
HStem: 0 18<20 49 20 404 20 49> 0 26<232 288 288 333> 241 26<179 268 179 274> 457 26<179 281 179 179> 465 18<20 50>
VStem: 94 85<97 241 267 389 389 416.5> 349 18<165 343 165 343> 394 15
LayerCount: 2
Fore
SplineSet
386 0 m 1xa7
 14 0 l 1
 14 17 l 1
 66 17 75 41.75 75 86 c 2
 75 398 l 2
 75 442 71 460 15 464 c 1
 15 483 l 1
 388 483 l 1
 392 365 l 1
 372 365 l 1
 361 431 347 456 270 456 c 2
 176 456 l 2
 162 456 159 439 159 424 c 2
 159 266 l 1
 264 266 l 2
 322 266 325 295 333 343 c 1
 347 343 l 1
 347 163 l 1
 333 163 l 1
 324 224 317 240 264 240 c 2
 159 240 l 1
 159 65 l 2
 159 42 171 26 229 26 c 2
 248 26 l 2x6f
 345 26 362 46 398 122 c 1
 413 122 l 1
 386 0 l 1xa7
EndSplineSet
EndChar

StartChar: zeta
Encoding: 950 950 131
Width: 505
Flags: HMW
HStem: 0 29<178 374 374 422> 454 29<209.5 244 244 392>
VStem: 67 467<0 133 14 133>
LayerCount: 2
Fore
SplineSet
448 0 m 1
 37 0 l 1
 37 22 l 1
 348 454 l 1
 192 454 l 2
 84 454 78 398 70 345 c 1
 51 345 l 1
 67 483 l 1
 452 483 l 1
 452 461 l 1
 139 29 l 1
 314 29 l 2
 362 29 415 56 433 101 c 0
 438 112 441 123 447 141 c 1
 467 141 l 1
 448 0 l 1
EndSplineSet
EndChar

StartChar: eta
Encoding: 951 951 132
Width: 529
Flags: HMW
HStem: 0 14 469 14
VStem: 87 74
LayerCount: 2
Fore
SplineSet
15 0 m 1
 15 19 l 1
 68 20 81 38 81 86 c 2
 81 398 l 2
 81 444 66 464 15 465 c 1
 15 483 l 1
 232 483 l 1
 232 463 l 1
 171 460 166 443 166 398 c 2
 166 270 l 1
 364 270 l 1
 364 398 l 2
 364 444 349 464 298 465 c 1
 298 483 l 1
 515 483 l 1
 515 463 l 1
 454 460 449 443 449 398 c 2
 449 86 l 2
 449 40 455 23 515 21 c 1
 515 0 l 1
 298 0 l 1
 298 19 l 1
 351 20 364 38 364 86 c 2
 364 222 l 1
 166 222 l 1
 166 86 l 2
 166 40 172 23 232 21 c 1
 232 0 l 1
 15 0 l 1
EndSplineSet
EndChar

StartChar: theta
Encoding: 952 952 133
Width: 574
Flags: HMW
HStem: -13 26<274 313 274 379> 469 26<223.5 370.5 214 371.5>
VStem: 54 97<194 254 194 298.5> 444 97<219 260>
LayerCount: 2
Fore
SplineSet
288 471 m 0
 137 471 140 272 140 240 c 0
 140 152 158 103 178 71 c 0
 198 39 240 15 286 15 c 0
 318 15 373 28 404 84 c 0
 428 127 433 200 433 242 c 0
 433 282 433 471 288 471 c 0
288 -9 m 0
 149 -9 38 103 38 242 c 0
 38 381 148 491 288 491 c 0
 427 491 537 381 537 242 c 0
 537 103 426 -9 288 -9 c 0
375 164 m 5
 375 191 355 206 337 206 c 6
 235 206 l 6
 222 206 200 188 200 164 c 5
 180 164 l 5
 180 317 l 5
 201 317 l 5
 201 293 223 274 235 274 c 6
 337 274 l 6
 355 274 375 288 375 305 c 6
 375 317 l 5
 396 317 l 5
 396 164 l 5
 375 164 l 5
EndSplineSet
EndChar

StartChar: iota
Encoding: 953 953 134
Width: 256
Flags: HMW
HStem: 0 14 469 14
VStem: 90 74
LayerCount: 2
Fore
SplineSet
19 0 m 1
 19 19 l 1
 72 20 85 38 85 86 c 2
 85 398 l 2
 85 444 70 464 19 465 c 1
 19 483 l 1
 236 483 l 1
 236 463 l 1
 175 460 170 443 170 398 c 2
 170 86 l 6
 170 40 176 23 236 21 c 5
 236 0 l 5
 19 0 l 1
EndSplineSet
EndChar

StartChar: kappa
Encoding: 954 954 135
Width: 507
Flags: HMW
HStem: 0 18<3 36 3 236 3 36 313 318.5> 465 18<3 236 3 236 303 307.5>
VStem: 77 85<98 246 255 383 383 388>
LayerCount: 2
Fore
SplineSet
284 0 m 1
 284 17 l 1
 301 19 309 19 313 19 c 0
 333 19 333 37 333 39 c 0
 333 69 190 219 167 242 c 1
 167 86 l 2
 167 39 171 23 230 18 c 1
 230 0 l 1
 14 0 l 1
 14 18 l 1
 72 22 78 39 78 94 c 2
 78 398 l 2
 78 443 73 460 14 465 c 1
 14 483 l 1
 231 483 l 1
 231 464 l 1
 170 459 167 444 167 398 c 2
 167 260 l 1
 275 361 l 1
 312.189 399.896 331 429 331 440 c 0
 331 445 327 462 307 464 c 1
 284 464 l 1
 284 483 l 1
 483 483 l 1
 483 465 l 1
 429 461 417 453 370 407 c 2
 242 281 l 1
 404 104 l 2
 467.54 34.5762 476 19 517 18 c 1
 517 0 l 1
 284 0 l 1
EndSplineSet
EndChar

StartChar: lambda
Encoding: 955 955 136
Width: 521
Flags: HMW
HStem: -13 21G<249 267 249 249> 465 18<-6 191 -6 191 343 356.5 478 502>
VStem: -6 508<465 483 465 483> 343 159<465 483 465 483>
LayerCount: 2
Fore
SplineSet
225 366 m 1xc0
 124 98 l 2
 116.73 78.71 111 67 111 52 c 0
 111 23 152 19 163 18 c 1
 163 0 l 1
 7 0 l 1
 7 18 l 1
 45 19 62.9844 37.2041 93 115 c 2
 240 496 l 1
 258 496 l 1
 432 90 l 2
 456.518 32.792 470 19 514 18 c 1
 514 0 l 1
 314 0 l 1
 314 18 l 1
 342 19 360 20 360 43 c 0
 360 55 354.896 67.9531 347 86 c 2
 319 150 l 1
 225 366 l 1xc0
EndSplineSet
EndChar

StartChar: mu
Encoding: 956 956 137
Width: 652
Flags: HMW
HStem: 0 18<21 207 21 21 595.5 630> 465 18<21 176>
VStem: 93 32<75 87 87 369 369 400> 476 82<98 108 108 389>
LayerCount: 2
Fore
SplineSet
417 0 m 1
 417 18 l 1
 476 22 475 39 475 94 c 2
 475 422 l 1
 314 0 l 1
 293 0 l 1
 125 399 l 1
 125 112 l 2
 125 44 145 21 201 18 c 1
 201 0 l 1
 18 0 l 1
 18 18 l 1
 78 22 93 43 93 112 c 2
 93 398 l 2
 93 444 83 460 20 463 c 1
 20 483 l 1
 174 483 l 1
 326 141 l 1
 471 483 l 1
 633 483 l 1
 633 465 l 1
 576 461 560 443 560 398 c 2
 560 86 l 2
 560 41 577 21 633 17 c 1
 633 0 l 1
 417 0 l 1
EndSplineSet
EndChar

StartChar: nu
Encoding: 957 957 138
Width: 534
Flags: HMW
HStem: 0 18<150.5 189 4 4> 465 18<-17 -0.5>
VStem: 77 32<94 106 106 374> 432 32<136 360 360 383 0 402.5>
LayerCount: 2
Fore
SplineSet
416 358 m 2
 416 443 406 462 337 463 c 1
 337 483 l 1
 520 483 l 1
 519 463 l 1
 449 460 448.14 434 448 381 c 2
 453 -8 l 1
 435 -8 l 1
 99 373 l 1
 99 112 l 2
 99 44 123 21 179 18 c 1
 179 0 l 1
 -4 0 l 1
 -4 18 l 1
 56 22 65 42 65 112 c 2
 65 419 l 1
 38 449 31 462 -4 462 c 1
 -4 483 l 1
 108 483 l 1
 416 136 l 1
 416 358 l 2
EndSplineSet
EndChar

StartChar: xi
Encoding: 958 958 139
Width: 430
Flags: HMW
HStem: 0 18<112 342 112 112> 450 33<92.5 117 117 184 269 342 269 269>
VStem: 16 15 184 85<100 450> 427 16
LayerCount: 2
Fore
SplineSet
323 74 m 6
 359 74 383 95 383 141 c 5
 401 141 l 5
 401 0 l 5
 29 0 l 5
 29 141 l 5
 47 141 l 5
 47 95 70.999 74 107 74 c 6
 323 74 l 6
304 164 m 1
 304 191 284 206 266 206 c 2
 164 206 l 2
 151 206 129 188 129 164 c 1
 109 164 l 1
 109 317 l 1
 130 317 l 1
 130 293 152 274 164 274 c 2
 266 274 l 2
 284 274 304 288 304 305 c 2
 304 317 l 1
 325 317 l 1
 325 164 l 1
 304 164 l 1
383 343 m 1
 383 390 362 410 324 410 c 2
 105 410 l 2
 64 410 53 392 47 343 c 1
 29 343 l 1
 29 483 l 1
 401 483 l 1
 401 343 l 1
 383 343 l 1
EndSplineSet
EndChar

StartChar: omicron
Encoding: 959 959 140
Width: 552
Flags: HMW
HStem: -13 26<271 310 271 376> 469 26<220.5 367.5 211 368.5>
VStem: 51 97<194 254 194 298.5> 441 97<219 260>
LayerCount: 2
Fore
SplineSet
278 470 m 0
 127 470 130 271 130 239 c 0
 130 151 148 102 168 70 c 0
 188 38 230 14 276 14 c 0
 308 14 363 27 394 83 c 0
 418 126 423 199 423 241 c 0
 423 281 423 470 278 470 c 0
272 -10 m 0
 144 -10 38 89 38 242 c 0
 38 387 137 493 277 493 c 0
 415 493 515 390 515 239 c 0
 515 93 416 -10 272 -10 c 0
EndSplineSet
EndChar

StartChar: pi
Encoding: 960 960 141
Width: 527
Flags: HMW
HStem: 0 14 469 14
VStem: 85 74
LayerCount: 2
Fore
SplineSet
301 0 m 1
 301 21 l 1
 360 24 362 43 362 94 c 2
 362 447 l 1
 167 447 l 1
 167 86 l 2
 167 40 174 24 228 20 c 1
 228 0 l 1
 15 0 l 1
 15 21 l 1
 74 24 77 43 77 94 c 2
 77 398 l 2
 77 445 70 460 15 465 c 1
 15 483 l 1
 513 483 l 1
 513 465 l 1
 458 461 451 445 451 398 c 2
 451 86 l 2
 451 40 460 24 513 20 c 1
 513 0 l 1
 301 0 l 1
EndSplineSet
EndChar

StartChar: rho
Encoding: 961 961 142
Width: 451
Flags: HMW
HStem: 0 14 469 14
VStem: 87 74
LayerCount: 2
Fore
SplineSet
171 86 m 2
 171 40 177 23 237 21 c 1
 237 0 l 1
 15 0 l 1
 15 21 l 1
 78 23 82 39 82 86 c 2
 82 398 l 2
 82 445 79 463 15 466 c 1
 15 483 l 1
 178 483 l 2
 249 483 293 480 326 467 c 0
 389 442 421 396 421 343 c 0
 421 285 379 210 262 210 c 0
 222 210 191 218 171 223 c 1
 171 86 l 2
172 447 m 1
 172 250 l 1
 185 246 206 239 232 239 c 0
 301 239 328 300 328 348 c 0
 328 395 302 454 220 454 c 0
 198 454 183 450 172 447 c 1
EndSplineSet
EndChar

StartChar: sigma
Encoding: 963 963 144
Width: 457
Flags: HMW
HStem: 0 64 460 23
VStem: 409 13
LayerCount: 2
Fore
SplineSet
10 0 m 1
 246 242 l 1
 12 483 l 1
 414 483 l 1
 423 340 l 1
 403 340 l 1
 395 405 338 458 281 458 c 2
 153 458 l 2
 149 458 138 461 138 455 c 0
 138 449 303 280 322 260 c 1
 133 65 l 1
 332 65 l 2
 359 65 386.407 103.141 396 130 c 2
 401 144 l 1
 422 144 l 1
 422 0 l 1
 10 0 l 1
EndSplineSet
EndChar

StartChar: tau
Encoding: 964 964 145
Width: 488
Flags: HMW
HStem: 0 18<145 375 145 145> 450 33<125.5 150 150 217 302 375 302 302>
VStem: 49 15 217 85<100 450> 460 16
LayerCount: 2
Fore
SplineSet
441 368 m 1
 425 448 389 450 313 450 c 2
 284 450 l 1
 284 86 l 2
 284 39 289 21 351 18 c 1
 351 0 l 1
 130 0 l 1
 130 17 l 1
 191 21 195 38 195 94 c 2
 195 450 l 1
 166 450 l 2
 92 450 63 447 46 367 c 1
 29 367 l 1
 34 483 l 1
 451 483 l 5
 459 368 l 1
 441 368 l 1
EndSplineSet
EndChar

StartChar: upsilon
Encoding: 965 965 146
Width: 508
Flags: HMW
HStem: 0 18<128 358 128 128> 450 33<108.5 133 133 200 285 358 285 285>
VStem: 32 15 200 85<100 450> 443 16
LayerCount: 2
Fore
SplineSet
480 392 m 0
 455 392 464 429 395 429 c 0
 361 429 307 415 307 219 c 2
 307 67 l 2
 307 35 328 18 371 18 c 1
 371 0 l 1
 153 0 l 1
 153 18 l 1
 196 18 217 34 217 67 c 2
 217 215 l 2
 217 420 165 430 132 430 c 0
 98 430 84 416 76 410 c 0
 66 402 61 393 45 393 c 0
 35 393 30 396 30 414 c 0
 30 455 93 491 129 491 c 0
 207 491 246 426 262 335 c 1
 278 426 325 491 405 491 c 0
 443 491 494 454 494 414 c 0
 494 396 488 392 480 392 c 0
EndSplineSet
EndChar

StartChar: phi
Encoding: 966 966 147
Width: 541
Flags: HMW
HStem: 0 14 469 14
VStem: 84 74
LayerCount: 2
Fore
SplineSet
313 412 m 1
 406 412 522 365 522 253 c 0
 522 195 502 146 449 117 c 0
 416 99 363 78 320 78 c 0
 317 78 314 78 312 79 c 1
 312 47 322 21 362 21 c 2
 377 21 l 1
 377 0 l 1
 158 0 l 1
 158 19 l 1
 173 20 l 1
 209 20 223 45 224 79 c 1
 223 79 l 2
 123 79 18 134 18 248 c 0
 18 361 130 411 223 412 c 1
 221 443 206 465 173 465 c 2
 156 465 l 1
 156 483 l 1
 384 483 l 1
 384 465 l 1
 370 466 367 465 366 465 c 0
 327 465 318 444 313 412 c 1
312 390 m 1
 312 101 l 5
 391 104 430 171 430 252 c 0
 430 324 382 386 312 390 c 1
224 390 m 1
 151 387 109 328 109 253 c 0
 109 170 142 104 224 101 c 5
 224 390 l 1
EndSplineSet
EndChar

StartChar: chi
Encoding: 967 967 148
Width: 539
Flags: HMW
HStem: 0 18<191 196 25 25 305 320.5 525.5 531> 465 18<25 258 242 249 249 258 352 368>
VStem: 25 171<0 18 0 18> 25 506<0 18 0 18 0 483 0 483> 352 163<465 483 465 483>
LayerCount: 2
Fore
SplineSet
288 295 m 1xc0
 369 407 l 2
 375.339 415.765 384 430 384 441 c 0
 384 446 381 465 349 465 c 1
 349 483 l 1
 512 483 l 1
 512 465 l 1
 486 463 443 460 377 369 c 1
 306 269 l 1
 432 79 l 2
 458.985 38.3076 479 22 521 18 c 1
 521 0 l 1
 294 0 l 1
 294 18 l 1
 311 20 319 20 322 20 c 0
 346 21 348 39 348 43 c 0
 348 65 261 186 251 198 c 1
 174 93 l 2
 171.043 88.9678 150 61 150 43 c 0
 150 19 179 18 189 18 c 1
 189 0 l 1
 18 0 l 1
 18 18 l 1
 59 17 96.9502 36.0361 157 119 c 2
 233 224 l 1
 152 346 l 2
 85.5674 446.059 73 463 23 465 c 1
 23 483 l 1
 254 483 l 1
 254 465 l 1
 225 465 l 2
 202 465 199 446 199 440 c 0
 199 416 269 322 288 295 c 1xc0
EndSplineSet
EndChar

StartChar: psi
Encoding: 968 968 149
Width: 589
Flags: HMW
HStem: 0 14 469 14
VStem: 84 74
LayerCount: 2
Fore
SplineSet
548 403 m 0
 534 403 528 419 498 419 c 0
 480 419 458 421 458 401 c 0
 458 364 526 339 526 257 c 0
 526 197 463 138 350 138 c 0
 343 138 341 138 335 139 c 1
 335 69 l 2
 335 57 332 22 405 21 c 1
 405 0 l 1
 175 0 l 1
 175 21 l 1
 226 20 245 42 245 69 c 2
 245 139 l 1
 239 138 237 138 230 138 c 0
 117 138 54 197 54 257 c 0
 54 300 71 327 88 348 c 0
 99 363 122 382 122 401 c 0
 122 421 100 419 81 419 c 0
 52 419 46 403 32 403 c 0
 24 403 13 407 13 421 c 0
 13 450 48 488 80 488 c 0
 129 488 163 456 163 396 c 0
 163 350 141 309 141 262 c 0
 141 202 163 163 245 161 c 5
 245 414 l 2
 245 452 210 459 181 463 c 1
 181 483 l 1
 398 483 l 1
 398 463 l 1
 359 460 335 444 335 415 c 2
 335 161 l 5
 416 163 439 202 439 262 c 0
 439 309 417 350 417 396 c 0
 417 456 451 488 500 488 c 0
 532 488 566 450 566 421 c 0
 566 408 557 403 548 403 c 0
EndSplineSet
EndChar

StartChar: omega
Encoding: 969 969 150
Width: 564
Flags: HMW
HStem: 0 112 467 26
VStem: 29 18 50 83 431 83 518 18
LayerCount: 2
Fore
SplineSet
531 0 m 1
 321 0 l 1
 332 118 l 1
 391 138 417 187 417 276 c 0
 417 418 334 470 283 470 c 4
 203 470 148 383 148 282 c 0
 148 185 182 139 235 118 c 1
 243 0 l 1
 34 0 l 1
 29 125 l 1
 47 125 l 1
 50 88 77 74 111 74 c 2
 206 74 l 1
 205 89 l 1
 144 104 49 166 49 283 c 0
 49 399 143 493 285 493 c 0
 417 493 515 412 515 286 c 0
 515 188 451 117 363 90 c 1
 362 74 l 1
 455 74 l 2
 492 74 516 94 517 125 c 1
 535 125 l 1
 531 0 l 1
EndSplineSet
EndChar

StartChar: iotadieresis
Encoding: 970 970 151
Width: 243
Flags: HMW
HStem: 0 14 469 14
VStem: 69.5 74
LayerCount: 2
Fore
SplineSet
206 688 m 4xf4
 236 688 259 663 259 635 c 4
 259 606 235 582 206 582 c 4
 178 582 153 605 153 635 c 4
 153 664 177 688 206 688 c 4xf4
34 688 m 4
 64 688 87 663 87 635 c 4
 87 606 63 582 34 582 c 4
 5 582 -19 605 -19 635 c 4
 -19 664 5 688 34 688 c 4
13 0 m 1
 13 19 l 1
 66 20 79 38 79 86 c 2
 79 398 l 2
 79 444 64 464 13 465 c 1
 13 483 l 1
 230 483 l 1
 230 463 l 1
 169 460 164 443 164 398 c 2
 164 86 l 2
 164 40 170 23 230 21 c 1
 230 0 l 1
 13 0 l 1
EndSplineSet
EndChar

StartChar: upsilondieresis
Encoding: 971 971 152
Width: 524
Flags: HMW
HStem: 0 18<128 358 128 128> 450 33<108.5 133 133 200 285 358 285 285>
VStem: 32 15 200 85<100 450> 443 16
LayerCount: 2
Fore
SplineSet
480 392 m 0
 455 392 464 429 395 429 c 0
 361 429 307 415 307 219 c 2
 307 67 l 2
 307 35 328 18 371 18 c 1
 371 0 l 1
 153 0 l 1
 153 18 l 1
 196 18 217 34 217 67 c 2
 217 215 l 2
 217 420 165 430 132 430 c 0
 98 430 84 416 76 410 c 0
 66 402 61 393 45 393 c 0
 35 393 30 396 30 414 c 0
 30 455 93 491 129 491 c 0
 207 491 246 426 262 335 c 1
 278 426 325 491 405 491 c 0
 443 491 494 454 494 414 c 0
 494 396 488 392 480 392 c 0
342 688 m 0xf4
 372 688 395 663 395 635 c 0
 395 606 371 582 342 582 c 0
 314 582 289 605 289 635 c 0
 289 664 313 688 342 688 c 0xf4
170 688 m 0
 200 688 223 663 223 635 c 0
 223 606 199 582 170 582 c 0
 141 582 117 605 117 635 c 0
 117 664 141 688 170 688 c 0
EndSplineSet
EndChar

StartChar: uni0381
Encoding: 897 897 153
Width: 199
Flags: MW
HStem: -223 223<79.5 181>
VStem: 46 154
LayerCount: 2
Fore
SplineSet
200 -10 m 1
 185 -52 140 -223 91 -223 c 0
 68 -223 46 -205 46 -181 c 0
 46 -152 156 -29 181 0 c 1
 200 -10 l 1
EndSplineSet
EndChar

StartChar: uni0380
Encoding: 896 896 154
Width: 199
Flags: MW
HStem: 557 223<19 120.5>
VStem: 0 154
LayerCount: 2
Fore
SplineSet
154 738 m 0
 154 709 44 586 19 557 c 1
 0 567 l 1
 15 609 60 780 109 780 c 0
 132 780 154 762 154 738 c 0
EndSplineSet
EndChar

StartChar: uni0383
Encoding: 899 899 155
Width: 278
Flags: HMW
HStem: -2 104<121.5 170> 348 111<121 150.5>
VStem: 180 39<-17 -12>
LayerCount: 2
Fore
SplineSet
166 -2 m 0
 162 -2 156 -6 139 -6 c 0
 102 -6 80 13 80 46 c 0
 80 80 104 102 139 102 c 0
 184 102 219 63 219 13 c 0
 219 -47 176 -107 107 -141 c 1
 98 -122 l 1
 152 -85 180 -48 180 -16 c 0
 180 -8 174 -2 166 -2 c 0
136 459 m 0
 166 459 192 433 192 402 c 0
 192 373 166 348 135 348 c 0
 106 348 81 373 81 402 c 0
 81 433 106 459 136 459 c 0
EndSplineSet
EndChar

StartChar: uni0382
Encoding: 898 898 156
Width: 332
Flags: MW
HStem: -200 37<219.5 232>
VStem: 129 73<-104 -71 -104 -52 -104 -52> 271 25<-124 -112>
LayerCount: 2
Fore
SplineSet
296 -112 m 1
 296 -172 261 -200 203 -200 c 0
 150 -200 129 -172 129 -121 c 2
 129 -52 l 1
 205 -52 l 1
 205 -60 202 -57 202 -85 c 0
 202 -123 207 -163 232 -163 c 0
 260 -163 271 -136 271 -112 c 1
 296 -112 l 1
EndSplineSet
EndChar

StartChar: exclamdown
Encoding: 161 161 166
Width: 228
Flags: W
HStem: -10 21G<96.5 135> 401 86<101 127.5>
VStem: 67 95<37 48 37 51>
LayerCount: 2
Fore
SplineSet
105 354 m 1
 123 354 l 1
 160 71 l 2
 161 63 162 52 162 44 c 0
 162 30 156 -10 114 -10 c 0
 79 -10 67 16 67 44 c 0
 67 58 69 74 70 85 c 2
 105 354 l 1
114 401 m 0
 88 401 68 420 68 444 c 0
 68 467 87 487 114 487 c 0
 142 487 161 467 161 444 c 0
 161 420 141 401 114 401 c 0
EndSplineSet
EndChar

StartChar: dotlessi
Encoding: 305 305 210
Width: 256
Flags: W
HStem: 0 14 469 14
VStem: 90 74
LayerCount: 2
Fore
SplineSet
19 0 m 1
 19 19 l 1
 72 20 85 38 85 86 c 2
 85 398 l 2
 85 444 70 464 19 465 c 1
 19 483 l 1
 236 483 l 1
 236 463 l 1
 175 460 170 443 170 398 c 2
 170 86 l 2
 170 40 176 23 236 21 c 1
 236 0 l 1
 19 0 l 1
EndSplineSet
EndChar

StartChar: uni02BB
Encoding: 699 699 241
Width: 333
Flags: W
HStem: 501 104<133.816 221.47>
VStem: 94 39<564.5 658.984>
LayerCount: 2
Fore
SplineSet
147 605 m 0
 151 605 157 609 174 609 c 0
 210 609 233 589 233 558 c 0
 233 524 209 501 174 501 c 0
 129 501 94 539 94 590 c 0
 94 650 139 711 206 744 c 1
 215 725 l 1
 161 688 133 652 133 619 c 0
 133 611 139 605 147 605 c 0
EndSplineSet
EndChar

StartChar: afii57929
Encoding: 700 700 242
Width: 333
Flags: W
HStem: 655 104<91.5297 179.184>
VStem: 180 39<601.016 695.5>
LayerCount: 2
Fore
SplineSet
166 655 m 0
 162 655 156 651 139 651 c 0
 103 651 80 671 80 702 c 0
 80 736 104 759 139 759 c 0
 184 759 219 721 219 670 c 0
 219 610 174 549 107 516 c 1
 98 535 l 1
 152 572 180 608 180 641 c 0
 180 649 174 655 166 655 c 0
EndSplineSet
EndChar

StartChar: afii64937
Encoding: 701 701 243
Width: 333
Flags: W
HStem: 490 21G<198.5 241> 629 104<159.816 247.47>
VStem: 120 39<575.234 669>
LayerCount: 2
Fore
SplineSet
173 629 m 0
 165 629 159 623 159 615 c 0
 159 583 187 546 241 509 c 1
 232 490 l 1
 165 523 120 584 120 644 c 0
 120 694 155 733 200 733 c 0
 235 733 259 710 259 676 c 0
 259 644 236 625 200 625 c 0
 183 625 177 629 173 629 c 0
EndSplineSet
EndChar

StartChar: uni02BE
Encoding: 702 702 244
Width: 333
Flags: W
HStem: 508 34<116 159.255> 673 34<117 158.311>
VStem: 182 34<564.398 650.35>
LayerCount: 2
Fore
SplineSet
117 707 m 1
 173 707 216 663 216 607 c 0
 216 553 171 508 116 508 c 1
 116 542 l 1
 152 542 182 571 182 607 c 0
 182 643 152 673 117 673 c 1
 117 707 l 1
EndSplineSet
EndChar

StartChar: uni02BF
Encoding: 703 703 245
Width: 333
Flags: W
HStem: 514 34<174.689 216> 679 34<173.745 217>
VStem: 117 34<570.65 656.602>
LayerCount: 2
Fore
SplineSet
216 514 m 1
 160 514 117 558 117 614 c 0
 117 668 162 713 217 713 c 1
 217 679 l 1
 181 679 151 650 151 614 c 0
 151 578 181 548 216 548 c 1
 216 514 l 1
EndSplineSet
EndChar

StartChar: circumflex
Encoding: 710 710 246
Width: 333
Flags: W
HStem: 507 167
VStem: 11 311
LayerCount: 2
Fore
SplineSet
322 507 m 1
 288 507 l 1
 166 610 l 1
 45 507 l 1
 11 507 l 1
 135 674 l 1
 197 674 l 1
 322 507 l 1
EndSplineSet
EndChar

StartChar: tilde
Encoding: 732 732 247
Width: 333
Flags: W
HStem: 520 56<182.09 286.616> 566 55<43.0361 144.714>
VStem: 1 330
LayerCount: 2
Fore
SplineSet
302 626 m 1xa0
 331 626 l 1
 310 550 281 520 226 520 c 0xa0
 201 520 186 524 145 544 c 2
 122 555 l 2
 107 562 93 566 81 566 c 0x60
 58 566 41 551 30 520 c 1
 1 520 l 1xa0
 16 585 52 621 102 621 c 0x60
 124 621 149 615 172 603 c 2
 196 591 l 2
 215 582 234 576 249 576 c 0
 272 576 285 588 302 626 c 1xa0
EndSplineSet
EndChar

StartChar: acute
Encoding: 180 180 322
Width: 333
Flags: W
HStem: 507 171
VStem: 93 224
LayerCount: 2
Fore
SplineSet
133 507 m 1
 93 507 l 1
 240 655 l 2
 258 673 267 678 282 678 c 0
 304 678 317 666 317 646 c 0
 317 630 308 617 287 604 c 2
 133 507 l 1
EndSplineSet
EndChar

StartChar: acutecomb
Encoding: 769 769 323
Width: 333
Flags: W
HStem: 507 171
VStem: 93 224
LayerCount: 2
Fore
SplineSet
133 507 m 1
 93 507 l 1
 240 655 l 2
 258 673 267 678 282 678 c 0
 304 678 317 666 317 646 c 0
 317 630 308 617 287 604 c 2
 133 507 l 1
EndSplineSet
EndChar

StartChar: gravecomb
Encoding: 768 768 324
Width: 333
Flags: W
HStem: 507 171
VStem: 19 223
LayerCount: 2
Fore
SplineSet
242 507 m 1
 202 507 l 1
 48 604 l 2
 30 616 19 631 19 647 c 0
 19 666 32 678 53 678 c 0
 68 678 77 673 95 655 c 2
 242 507 l 1
EndSplineSet
EndChar
